/* XPM */
static char *_ef5372ba13e498a9a08389aa3d5587cSE01dRMFH92d2hPD[] = {
/* columns rows colors chars-per-pixel */
"64 64 255 2 ",
"   c #010401",
".  c #010B01",
"X  c #0A0C0A",
"o  c #021301",
"O  c #051B03",
"+  c #0C1D0A",
"@  c #091508",
"#  c #121C0D",
"$  c #0E1A12",
"%  c #151813",
"&  c #0C2209",
"*  c #092804",
"=  c #12220D",
"-  c #122C0D",
";  c #0C3706",
":  c #14370C",
">  c #142C12",
",  c #172717",
"<  c #133412",
"1  c #153C12",
"2  c #1B3A15",
"3  c #1B331A",
"4  c #1C3D1A",
"5  c #1A3816",
"6  c #0A2B10",
"7  c #213A1D",
"8  c #1B3021",
"9  c #272D27",
"0  c #293A27",
"q  c #343D2E",
"w  c #373E37",
"e  c #034C02",
"r  c #094C05",
"t  c #0C4C0B",
"y  c #084707",
"u  c #12430D",
"i  c #14490C",
"p  c #035302",
"a  c #095304",
"s  c #0B530B",
"d  c #095709",
"f  c #12540D",
"g  c #14580C",
"h  c #144413",
"j  c #1A4514",
"k  c #144B12",
"l  c #1B4B15",
"z  c #1C451A",
"x  c #1C4B1B",
"c  c #154919",
"v  c #145514",
"b  c #1D531A",
"n  c #1A5717",
"m  c #0E5213",
"M  c #22441C",
"N  c #224B1D",
"B  c #204B16",
"V  c #23541C",
"C  c #235B1C",
"Z  c #27551B",
"A  c #147A0B",
"S  c #1A6617",
"D  c #137A0A",
"F  c #24631D",
"G  c #1F4D23",
"H  c #264423",
"J  c #294426",
"K  c #254B22",
"L  c #2B4C23",
"P  c #2D452A",
"I  c #2D4C2B",
"U  c #324C2D",
"Y  c #32442A",
"T  c #255322",
"R  c #2B5425",
"E  c #2C5B25",
"W  c #2D542A",
"Q  c #2D5C2A",
"!  c #265824",
"~  c #32542C",
"^  c #335C2C",
"/  c #37562D",
"(  c #344C32",
")  c #3B4C34",
"_  c #394837",
"`  c #2E5431",
"'  c #345332",
"]  c #3A5535",
"[  c #355B32",
"{  c #3A5C35",
"}  c #3D553A",
"|  c #3C5C3A",
" . c #365B39",
".. c #2D6228",
"X. c #2B6828",
"o. c #33632D",
"O. c #39632D",
"+. c #346C2D",
"@. c #356728",
"#. c #32742A",
"$. c #37792E",
"%. c #356332",
"&. c #3B6335",
"*. c #366A31",
"=. c #3C6B35",
"-. c #3D643A",
";. c #3E6B3A",
":. c #376038",
">. c #3B7333",
",. c #3B7637",
"<. c #2B7026",
"1. c #415C3D",
"2. c #43533E",
"3. c #416935",
"4. c #42643C",
"5. c #426A3C",
"6. c #436538",
"7. c #42733D",
"8. c #49733D",
"9. c #437E3B",
"0. c #3F6242",
"q. c #474B43",
"w. c #445D42",
"e. c #495947",
"r. c #595D56",
"t. c #456442",
"y. c #4A6445",
"u. c #456B42",
"i. c #4A6B44",
"p. c #4D654B",
"a. c #4D6C4A",
"s. c #456C49",
"d. c #526B4D",
"f. c #55644F",
"g. c #457242",
"h. c #4B7345",
"j. c #4B7A44",
"k. c #4D744A",
"l. c #4C7B4A",
"z. c #457B46",
"x. c #52734D",
"c. c #527C4D",
"v. c #556553",
"b. c #546C52",
"n. c #596D54",
"m. c #5B6D5A",
"M. c #5A645B",
"N. c #557352",
"B. c #597355",
"V. c #5D755A",
"C. c #5C7B5B",
"Z. c #587957",
"A. c #4D7550",
"S. c #616E5C",
"D. c #61745D",
"F. c #617B5E",
"G. c #656F65",
"H. c #647362",
"J. c #697766",
"K. c #737871",
"L. c #3C8936",
"P. c #2F8B27",
"I. c #1D8016",
"U. c #41843B",
"Y. c #468B3C",
"T. c #45963A",
"R. c #4BA13F",
"E. c #4B8545",
"W. c #55894C",
"Q. c #4D9845",
"!. c #55954C",
"~. c #559A49",
"^. c #5A8856",
"/. c #5B9451",
"(. c #5C9C53",
"). c #599256",
"_. c #628A5C",
"`. c #649B5C",
"'. c #639659",
"]. c #59A549",
"[. c #5EA552",
"{. c #61A354",
"}. c #65A45C",
"|. c #67AA5A",
" X c #62B357",
".X c #6D866B",
"XX c #6C8C6B",
"oX c #678764",
"OX c #6A9B63",
"+X c #699766",
"@X c #729B6C",
"#X c #778977",
"$X c #789A76",
"%X c #708A71",
"&X c #6CA563",
"*X c #6BA963",
"=X c #6FA46B",
"-X c #73A46B",
";X c #74AB6C",
":X c #76A96A",
">X c #74B46B",
",X c #7AA776",
"<X c #7CB374",
"1X c #7AB177",
"2X c #6DA371",
"3X c #5C8162",
"4X c #82AB7D",
"5X c #81A47A",
"6X c #84B77B",
"7X c #80937D",
"8X c #8C958B",
"9X c #89A989",
"0X c #8CB688",
"qX c #92B78C",
"wX c #96A994",
"eX c #8FB691",
"rX c #97BA94",
"tX c #8FAA8F",
"yX c #A0AB9D",
"uX c #A6B9A4",
"iX c #B2B4B1",
"pX c #9EA7A6",
"aX c #9AC597",
"sX c #8FC689",
"dX c #A1CA9A",
"fX c #A8C5A6",
"gX c #B2C9AE",
"hX c #BDCDBA",
"jX c #B8C6B6",
"kX c #B5D4B2",
"lX c #AFE1AF",
"zX c #C2D8BF",
"xX c #C1CCBE",
"cX c #C6F0BF",
"vX c #C6CBC5",
"bX c #C7D6C7",
"nX c #D3D8D4",
"mX c #D0DACF",
"MX c #CCE2C7",
"NX c #D2E8CE",
"BX c #D8E6D5",
"VX c #D6F0D6",
"CX c #E0F4DE",
"ZX c #ECFEE6",
"AX c #ECFDEB",
"SX c #E7F8E4",
"DX c #F2FFEE",
"FX c #F3F3EF",
"GX c #EEF9F1",
"HX c #F5FEF3",
"JX c #FAFEF5",
"KX c #F7FEFA",
"LX c #FEFEFD",
"PX c #F7F6F5",
"IX c #E2E9E2",
/* pixels */
"LXLXLXLXLXLXLXLXLXLXLXLXLXLXLXLXKXKXLXLXLXLXJXJXLXJXHXAXSXcXsX].).sXcXSXGXKXKXKXJXLXLXLXLXLXLXLXLXLXLXLXLXLXLXLXKXLXLXLXLXPXKXLX",
"KXLXLXLXLXLXLXLXLXLXLXLXLXLXLXLXKXLXKXLXJXJXJXJXDXCXkX1XE.@.<.P.L.E.`.4XdXMXSXKXLXLXLXLXLXLXLXLXLXLXLXLXLXLXLXLXLXLXLXLXLXLXLXKX",
"LXLXLXLXLXLXJXLXLXLXKXLXLXLXLXLXLXLXKXKXDXZXcXdX*XQ.$.<.<.+.+.#.#.L.).OX@X,XeXuXbXVXDXJXJXJXJXJXPXLXLXLXLXLXLXLXLXLXLXLXLXPXLXLX",
"LXLXLXLXLXLXLXLXPXKXKXKXHXLXLXPXKXGXSXzXrX:X{.Y.T.L.T.Q.~.Y.U.$.$.Q.(.*X*X=X2X;X@X4XqXgXMXZXJXJXLXLXLXJXJXJXLXJXLXLXLXLXLXLXLXLX",
"JXLXLXLXLXLXLXPXLXJXJXJXHXHXAXVXdX2X).E.U.L.R.R.R.R.Q.T.Y.E.Y.9.9.Y.~.].[.}.{.[.|.:X>X;X,X0XfXgXBXSXJXJXJXJXJXJXPXLXLXLXLXLXLXPX",
"LXJXLXLXLXLXLXLXJXDXDXAXNXaX3X! ! S $.Y.T.P.P.P.T.~.~.E.+.#.3.U.Y.R.{.|.{.].].{.].`.}.=X+X^.s.1.y.J.rXMXZXDXJXJXLXLXLXLXLXPXPXLX",
"LXLXLXLXPXJXLXHXNXkXeX1X,X,X,X@XQ.(.Q.Q.Q.Q.(.2X0XrXrX9X,XOX'.~.~.R.~.~.!.W.^.'.-X,XXXA. .0.c.oX$X4XqXqXqXqXxXBXHXJXHXPXLXLXLXLX",
"LXLXLXLXLXLXbX%XZ.l.l.).'.&X:X>X>X XR.P.R. X>X1X$X%X#X8XqX0X>X{.R.Y.9.Y.'.+X4XqXaXdXaX1X+X2X6XdXsX6X`.'.'._.^._..XbXPXLXJXLXPXLX",
"LXLXLXLXKXKXhX| a.j.>.U.!.].Y.L.P.D D I.I.I.Q.L.;.s.M..XtXqX-X)._.+X,X4XeXrXrXqX6X=X*X|.|. X].|.`.W.7.>.7.5.5.[ J fXHXHXLXKXLXLX",
"LXLXLXKXKXKXgXH 5.o.k y n S S D S D D I.I.P.T.E.+X9XuXfXgXrX4X+X_.$XtXrX9X,X@X@X`.(.[.].R.].]. X`.E.+.o.o.E | w.y.vXKXHXLXLXKXLX",
"LXLXLXLXKXKXfX1 h v n d g d S F X.+.X.*.L.2XeXfXfXrXtX$X^.N.k.A.3X%X9XeX9X,X+X/./.(.~.~.Q.E.<.F h h x R :.&.Z.oXH.mXLXLXLXLXLXLX",
"LXLXLXLXKXGXfXz b n <.<.<.X.b b g.s.s.Z.2XtXeXtX%XN.t.t.t.s.s.t.Z.XX9XeX4XOX_.^.~.E.$.F g f v v T { s.t.t.| n.J.M.vXLXLXLXLXLXLX",
"LXLXLXLXHXHXgXR O.l y t b ! T ! ..%.-.s.Z.H.m.w.t.a.oX4X9X0X$XoXk.8.8.j.x.c.l.E.9.X.e e p d d d c.Z.b.] ( ( v.H.M.vXLXLXLXLXLXLX",
"LXLXLXPXJXDXgXK &.Z * * * : 4 z %.%.:.' I } p.p.y.;.8._.,X$XXXZ.9.8.8.8.5.-.;.;.7.X.t e p e p m { ( P J ( ) v.H.G.vXLXPXLXLXLXLX",
"LXLXLXLXJXDXgXR / R * * > = 3 , | g.u.W z G ^ 3.3.O.O.^ Q M L { ;.+.+.%.[ ] y.x.A.[ h m v s p t M J ( w.b.n.D.H.r.vXJXLXLXLXLXPX",
"LXLXLXLXJXJXkX1.5.[ : * &   . o ' z.;.` K G Z O.3.3.O.^ &.W J M o.o.O.~ J H } B.k.| x b b k ! Q 4.d.N.B.B.B.B.f.q.vXLXLXLXLXLXLX",
"LXLXLXLXPXLXhX| y.u.[ ~ M > . . Z =.=.! T W : 6 < M L ] 1.D.D.y.{ O./ 0 q 2.p.5.i.%.V C ` A.m.H.N.a.i.8.5.4.y.b.e.vXLXJXLXLXLXLX",
"LXLXLXLXLXJXjXy.a.u.W ^ t.B.y.} B Z O.E ! ` < * & = > , 0 D.G.S.1./ / 6.S.D.x.8.;.o...o.t.J.G.G.a.5.6.6.&.-.a.Z.b.vXKXLXLXLXLXLX",
"LXLXLXPXLXLXxXp.N.u.K M H U 1.v.7 & - 2 M Y ,     X $ 8 0 J.G.H./ Z L d.J.J.p.&.-.&.o.o.0.H.G.S.1.3.6.&.^ ] p.D.v.vXLXKXPXLXLXLX",
"LXLXLXLXPXJXvXm.F.y.~ U ~ > , 3 # . O # = > 0 q $ @ @ @ , b.m.B./ / 1.B.J.J.p.[ 5.-...! 0.J.J.H.4.-.[ -.u.b.B.D.v.xXKXLXLXLXLXLX",
"LXLXLXLXLXLXxX2.D.b.} U J O + =     X o o O 2.J.H.e.8 6 < | 6.6.6.3.i.B.G.J.B.i.t.5.O.O.s.%XK.D.4.1.&.x.F..Xm.M.w vXLXLXLXPXLXLX",
"LXLXLXLXHXJXjX_ _ } 1.w.} o . .             + q 2.} W K x O.3.O.3./ / y.S.H.y.] ] ] %.&.0.v.e.2.[ / / C.J.D.2.9 9 iXLXJXLXLXLXLX",
"JXLXLXLXKXLXLXmXwX%Xv.w.w.O . .         .   . = * 2 ^ ! Z o.O.o.Z R ~ B.G.G.} J U ~ W R P ( _ ( | -.4.N.n.D.K.8XnXLXLXLXLXLXLXPX",
"LXLXLXLXLXLXKXLXKXHXSXjX7X, & + q.q.9 $   . . . o : 5.%.>.j.5.&.^ %./ x.m.G.y.} p.] N K P w.p.n.4.[ 4.8XxXFXLXLXLXLXLXLXLXLXLXLX",
"LXLXLXLXLXLXLXLXLXAXLXHXDXq & & 2.f.f.S.w._ +   . * %.[ :.s.N.Z.%.%.&.a.H.D.B.p.p.p.-.-.b.C.V.p.| ~ y.HXJXLXLXLXLXLXLXLXLXLXLXLX",
"LXLXLXLXLXLXLXLXLXJXLXHXAX( - - q 2.2.1.N.D.U & O - ' [ ` ` (  ./ N N h.H.m.d.a.b.y.u.k.b.w.} ) ~ W y.AXPXLXLXLXLXLXLXLXLXLXLXLX",
"LXLXLXLXLXLXLXLXLXLXHXKXDXd.' ' M Y L / &.6.Z : * - G G K ` L M N R R y.b.v.p.a.w.y.k.k.t.( ) w.' ' p.HXHXLXLXLXLXLXLXLXLXLXLXLX",
"LXLXLXLXLXLXLXLXLXLXLXHXDXB.] | 7 : : B Z E / E V K c c l &.3.^ ^ R / u.B.p.-.' ' w.6.| | b.V.Z.| ~ y.HXLXLXLXLXLXLXLXLXLXLXLXLX",
"LXLXLXLXLXLXLXLXLXLXLXHXAXp.~ [ L < 6 h k k n Z o.b t t t F F @.&.-.7.~ } -.:.~ 1.| K N ' n.p.} W J | HXLXLXLXLXLXLXJXLXLXLXLXLX",
"LXLXLXLXLXLXLXLXLXLXLXHXDXi.^ [ ' P K h u ; l Z C n v f r r f v B ^ u.K 5 0 [ j.k.| x N J ( J J J H w.DXJXLXLXLXLXLXLXLXLXLXLXLX",
"LXLXLXLXLXLXLXLXLXLXLXHXZXi.R W 1.2./ 4 4 1 h l l Z F F n v v u ; ; 1 | 4.H W h.g.-.L K J ' w.p.W H w.HXLXLXLXLXLXJXLXLXLXLXLXLX",
"LXLXLXLXLXLXLXLXLXLXLXLXAXN./ { y.n.d.] W 4 1 : ; y f g S v b b h h ; 5.Z.Z.x.5.y.{ c x  .D.V.B.K < P GXLXLXLXLXLXLXLXPXLXLXLXLX",
"LXLXLXLXLXLXLXLXLXLXLXPXHXN.t.y.H I [ { ~ / &.&.Z l y y s s d m k c j < J ) p.d.a.-.z z ` t.U 2 * * 0 ZXLXLXLXLXLXLXLXLXLXLXLXLX",
"LXLXLXLXLXLXLXLXJXLXLXLXHXe.) ] W 4 1 4 K R O.3.8.V y r s e p p m b G 1 - - ) n.y./ z x : ; : 7 M L V.JXJXLXLXLXLXLXLXLXLXLXLXLX",
"LXLXLXKXLXLXLXLXLXLXLXLXPXe.w _ b.p.1.~ z 2 N ;.,...r e e e p e S n ! G M 2 J ~ M j u i h T R ~ d.w.n.ZXLXLXPXLXLXLXLXLXLXLXLXLX",
"LXLXLXLXLXLXLXLXLXLXLXLXJXq.q q e.b.C.B.d.5.;.5.O.X.F n s p a r C T T G K K M z B B Z E E R R [ | 1.B.DXLXLXLXLXLXLXLXLXLXLXLXLX",
"LXLXLXLXLXLXLXLXLXLXLXLXLXe._ P 7 M L 3.j.c.7.;.,.*.X.X.C i y i b ! ^ -.4.{ R j j Z / ^ %.=.g.z.5.&.d.AXDXLXLXLXLXLXLXLXLXLXLXLX",
"LXLXLXLXLXLXLXLXLXLXLXLXKXv.2.1.M : 2 Z -.=.5.j.g.=.E E E Z B j ~ L K | u.u.W M B R / Z %.i.h.[ O.! h.AXHXHXLXLXLXLXLXLXLXLXLXLX",
"LXJXLXJXLXLXLXLXLXLXLXPXGXs. .;.l : ; B ! E &.u.u.5.-.[ [ { [ ~ I Y ( t.s.s.~ K L L 1.6.1.L H x X.b E qXzXAXJXLXPXLXLXLXLXLXPXLX",
"JXLXLXLXLXLXLXLXLXLXKXHXZX` 1 j B j i : * : ^ u.8.i.i.5.-.^ / | Y Y J ( ' 0.' K L 2.6.y.1.M 4 1 h y k 5.^.$XuXMXAXHXJXHXHXKXHXHX",
"LXLXLXKXLXLXLXLXLXJXJXJXZXi.W N R E W G z 4 I p.8.y.6.5.5.~ Q [ e.2.) 7 4 1 W [ ] / 1.2.U * * ; z T &.7.'.OX-X:X5XaXkXNXHXJXLXLX",
"LXLXLXLXKXLXLXLXLXHXDXHXSXC.5.-.T R W ` P P ~ ] 1.1.y.6.-.B T R d.b.p.J 4 4 K T j M L B M 1 N W i.j.h.8.Y./.}.|.&X&X-X$XwXfXbXAX",
"LXLXLXLXLXLXLXJXJXJXbX9XoX5.i.%.*.! G %.6.] U Y Y { d.i.;.j c c t.p.i.z h u u ; ; j / / 3.^ o.&.-.R N W.'.`.|.|.*X:X:X@XXXC.n.XX",
"LXLXLXLXLXJXBXNXhXgXwX$X^.c.+X1XOX).z.s.u.d.U - 7 U B.x.i.N T b { | h.[ Z l j i j E 3.O.*.! C V z z Z `.&X>X6X6X:X'.^.j.g.5.:.oX",
"HXJXPXBXwXF.y.i.XX5X4XoX7.,.E.).>X1X<X;X@XXX6.: - 7 i.a.i.R R N T T ^ Q E ! Z B B E %.....! C ! ! E =.6X6X6X'.h.O.^ -.;.:.E k ,.",
"kXfXfXdX0X@X^.W._.'.`.W.z.z.Q.}.&X`.&X,X,X-X@X@Xa.{ u.{ -.^ ^ ^ x x N T E ^ ^ E -.3.:.%.Q x i l O.[ 6._.j.O.L N L | k.h...b y U.",
"%.k +.E.}.|.|.|.{.(.(.!.(.Q.~.{.=X,X,X-X,X9X$X+X3Xu.j.c.W.j.3...x K K ~ ~ Z 1.i.i.-.` W ! z h N i.x.i.^ / [ &./ ] i.N.h.Q m y ,.",
",.y e e g S #.U.Q./.(.).(.&X>X6X6X5XXX+X1XsXaXsX-XW.W.OX:X6X*X'.s.[ h -.8.1.6.h.N.5.' | { Q V E x.F.N.~ N M U -.6.-.K G x b c ,.",
"*.e s d m s v j L -.XX$XeXeXsXaX9XoXh.%.9.!.{.~.9.@.>.9.`.*X>X>X1X,X'.W.W.h.j.k.N.y.1.d.a.%.%...i.x.V.P U w.a.i.c.O.b ! ! j h -.",
",.t m e e m V K 7 P b.b.3XZ.2X9XfXrX1X`.[.{.[.Q.R.!././.OX`.`.-X=X-X:X:X'.W.Q G | ] q ) / -.*...%.1.w.d.F.V.Z.h.*.o.+.>...z K oX",
"E.; k X.+.b x ! ~ } C.N.0.h y b +.,.~.(.[.(.~.~.!.W.!.'.<X6X4X-X=X).E.g.=.h.1 * 6 > = 7 Y 5.;.*.-.1.1.B.D.b.t.[ O.%.*.E :.j.y.oX",
"3Xx ! Q A.W.;.[ W ` Z.Z.c.c y t d a g S $.9.!.'.:X6X6X6X0X-XW.7.%.%.;.%.^ R 6 o + o .   o 7 L Q t.1.y.d.B.B.y.{ Q E o.^ -.s.1.XX",
"_.s.k./ ~ ;.;.-.5.{ i.i.g.k t p p a f i j z 4..X7X5X@XZ.3.Z V R ;.l.k.G 4 4 5       $ @ @ & 6 * O * P V.D.D.1.' [ / ^ E ~ ] ] %X",
"0.6 P I Y ~ ` -.-.[ ] [ %.k s d s e t k I P 2.S.n.6.1./ ~ ^ E ^ l.h.s.T G 4 9XvXG.w , X o   o & . o o m.H.B.t.w.4.~ L R N.tXxXZX",
"} @ > o o * 4 t.0.t.1.-.O.b f y *.,.%.W U ( e.J.S.f.) L Z ^ ^ 3.;.[ Q c z 4 uXHXLXPXnXpXM.%     O + + e.0 = 0 y.b..XwXNXDXJXHXJX",
"9 . @ o . . . > 3 P I -.5.;.=.E ;.A.A.t.| ' 4.B.D.6.7 Y ] i.i.j.R l E x z 5 rXJXPXLXLXLXLXPXiXG._ = @ . % _ 8XvXSXJXJXJXHXJXJXJX",
"K.,   . # @ @ # $ O . o - Q -.u.' ' [ &...*...O.O.h.t.B.B.Z.N.i.^ +.=.l h M uXJXLXLXLXLXLXLXLXLXLXnXwXwXmXKXLXLXJXJXPXLXLXLXLXLX",
"LXFXvX#X2., X     o o . o O > 3 3 0 K :.;.>.X...O.-.C.F.V.} y.~ 3.+.+.o.g.-.gXHXJXJXLXLXLXLXLXLXLXLXPXPXLXLXPXLXLXLXLXLXLXLXLXLX",
"PXLXLXKXLXIXpXr.%   X . @ @ # #   . . > R ^ =.s.| b.V.B.d.] [ O.E @...;.i.] gXJXJXLXLXLXLXLXLXLXLXLXLXLXLXLXLXLXLXLXLXLXLXLXLXLX",
"JXLXPXHXLXLXLXLXPXxX8Xe.,       % X . o > 6 > 3 _ v.S.n.B.-.T Q E O.^ -.| ) uXJXLXLXLXLXLXLXLXLXLXLXLXLXLXLXLXLXLXLXLXLXLXLXLXLX",
"LXLXLXLXLXLXPXLXLXLXLXPXBXpXr.% X X X X % % X X   9 K.H.N.^ %.O.N M 7 y.#XuXIXJXKXLXLXLXLXLXLXLXLXLXLXLXLXLXLXLXLXLXLXLXLXLXLXLX",
"LXLXLXLXLXLXLXLXLXJXJXLXLXLXLXPXxX8Xq.X     X X   9 M._ J ' 5.-.x.$XhXSXJXLXLXPXLXLXLXLXLXLXLXLXLXLXPXLXLXLXLXLXLXLXLXLXLXLXLXLX",
"LXLXLXLXLXLXLXLXLXLXLXLXJXPXLXLXJXJXJXIXwXe.9 # + O o o 9 #XuXbXDXDXPXLXJXLXLXLXLXLXLXLXLXLXLXKXLXLXLXLXLXHXLXLXLXLXLXLXLXLXLXLX",
"LXLXLXLXLXLXLXKXKXLXJXLXLXLXLXJXJXDXJXJXPXPXAXgX.XU B.uXCXLXLXLXKXHXLXLXLXLXLXLXLXLXLXLXLXLXLXLXLXLXLXLXLXLXLXLXLXLXLXLXLXLXLXKX"
};
