/* XPM */
static char *_716b6ae5fbc43d6851c1588e19726caCRsv3jxXywQ5KQIn[] = {
/* columns rows colors chars-per-pixel */
"64 64 235 2 ",
"   c #66655F",
".  c #71625D",
"X  c #6E5F62",
"o  c #5D6C66",
"O  c #5E6B68",
"+  c #56787B",
"@  c #4B787B",
"#  c #666666",
"$  c #6C6664",
"%  c #656963",
"&  c #6A6B65",
"*  c #66666A",
"=  c #6B666B",
"-  c #636B6B",
";  c #6B6A6A",
":  c #736D6D",
">  c #756969",
",  c #63736B",
"<  c #6D746E",
"1  c #6E796C",
"2  c #73746D",
"3  c #79746F",
"4  c #74786F",
"5  c #6C6C73",
"6  c #696571",
"7  c #726F73",
"8  c #7A6E75",
"9  c #6C7574",
"0  c #6D7974",
"q  c #6D7579",
"w  c #6D7C7C",
"e  c #657979",
"r  c #747474",
"t  c #797474",
"y  c #737974",
"u  c #7B7C76",
"i  c #74747A",
"p  c #7A747A",
"a  c #747B7B",
"s  c #7D7E7D",
"d  c #816E7B",
"f  c #827E76",
"g  c #827D7C",
"h  c #807178",
"j  c #5A867E",
"k  c #6B827E",
"l  c #7C8176",
"z  c #75817B",
"x  c #7C817C",
"c  c #768077",
"v  c #81817D",
"b  c #848077",
"n  c #597986",
"m  c #647D83",
"M  c #6B7C83",
"N  c #647D8A",
"B  c #6D7A8B",
"V  c #757C84",
"C  c #7D7E82",
"Z  c #797B88",
"A  c #687F91",
"S  c #827E83",
"D  c #897D85",
"F  c #827D89",
"G  c #867B88",
"H  c #5D8385",
"J  c #5C858B",
"K  c #588687",
"L  c #5C8590",
"P  c #5A909C",
"I  c #638284",
"U  c #6A8284",
"Y  c #63838B",
"T  c #6B848A",
"R  c #6C8B8C",
"E  c #688C88",
"W  c #748383",
"Q  c #7C8183",
"!  c #75838B",
"~  c #7B828A",
"^  c #718A8D",
"/  c #7D898B",
"(  c #65918E",
")  c #6C918D",
"_  c #77918C",
"`  c #658B92",
"'  c #6B8D93",
"]  c #658B99",
"[  c #728C93",
"{  c #728591",
"}  c #6B9293",
"|  c #689497",
" . c #7C969A",
".. c #759B9D",
"X. c #7B9A9C",
"o. c #7C9496",
"O. c #75A09D",
"+. c #5094A1",
"@. c #759DA4",
"#. c #7B9CA3",
"$. c #799AA6",
"%. c #779DAA",
"&. c #6FA4B2",
"*. c #7CCDCB",
"=. c #7CC7CD",
"-. c #6ACBDD",
";. c #72CCDC",
":. c #79CCD4",
">. c #6DDCD9",
",. c #74DDD7",
"<. c #74D4DA",
"1. c #74DBDD",
"2. c #7ADBDD",
"3. c #7BD5D8",
"4. c #73E0DB",
"5. c #5DDAEF",
"6. c #5EDAF3",
"7. c #5FD7FA",
"8. c #74CEE2",
"9. c #74CDEA",
"0. c #6FDBE3",
"q. c #63DAED",
"w. c #6AD8EA",
"e. c #75D5E6",
"r. c #7CD4E2",
"t. c #74DCE3",
"y. c #79DCE3",
"u. c #73DCEA",
"i. c #78DAEA",
"p. c #62D9F3",
"a. c #62D5FD",
"s. c #67D6F4",
"d. c #77D1F4",
"f. c #6DCDE3",
"g. c #5CEBEB",
"h. c #5BE5ED",
"j. c #5DEBF3",
"k. c #5CE9F8",
"l. c #5BF2F2",
"z. c #5AF0EE",
"x. c #6FE0E2",
"c. c #65EDE6",
"v. c #65E7EB",
"b. c #69E5EC",
"n. c #64EBED",
"m. c #68ECEE",
"M. c #7AE3E4",
"N. c #77E5EB",
"B. c #62F2EA",
"V. c #63E6F3",
"C. c #63EBF4",
"Z. c #6AEAF3",
"A. c #64ECFA",
"S. c #6AE6F4",
"D. c #75E5F3",
"F. c #79E7F3",
"G. c #6CF1F6",
"H. c #818181",
"J. c #858C85",
"K. c #8C8D85",
"L. c #81858C",
"P. c #858B8C",
"I. c #8D8D8D",
"U. c #888586",
"Y. c #928D8C",
"T. c #948A8A",
"R. c #85928B",
"E. c #8C918C",
"W. c #8A9186",
"Q. c #92918D",
"!. c #919286",
"~. c #858E91",
"^. c #8D8D92",
"/. c #8D8E99",
"(. c #838995",
"). c #928D92",
"_. c #928C9A",
"`. c #849392",
"'. c #8C9193",
"]. c #8C949A",
"[. c #88999B",
"{. c #919191",
"}. c #989699",
"|. c #839AA3",
" X c #8695A4",
".X c #9894A4",
"XX c #92BBD3",
"oX c #8FB9C9",
"OX c #83CACD",
"+X c #84CDD5",
"@X c #88CED3",
"#X c #88C6D9",
"$X c #83D1D4",
"%X c #85D4DB",
"&X c #8AD6D8",
"*X c #92D9D9",
"=X c #8ACBD4",
"-X c #86C8E4",
";X c #83D6E1",
":X c #82DDE3",
">X c #80D0E9",
",X c #84CEF3",
"<X c #BBD7E0",
"1X c #BADEF6",
"2X c #83E5E9",
"3X c #B4EEFF",
"4X c #B8EDFF",
"5X c #B7E4F5",
"6X c #B5F2FF",
"7X c #A0EEFF",
"8X c #C0D4DD",
"9X c #C5DEED",
"0X c #C9DDED",
"qX c #C7D8E2",
"wX c #CCDCF3",
"eX c #C5DCF3",
"rX c #C4E1ED",
"tX c #CCE2EC",
"yX c #CCE3F2",
"uX c #CBE5FD",
"iX c #CBEAFE",
"pX c #C5E7FC",
"aX c #D2E5F8",
"sX c #C8FFFF",
"dX c #DDFDFD",
"fX c #DAF9FB",
"gX c #EDEEEC",
"hX c #F6F6ED",
"jX c #E2FEFF",
"kX c #E6F6FF",
"lX c #FCFBF3",
"zX c #F6FCFD",
"xX c #FCFDFD",
"cX c #F6F6F6",
"vX c #F2EBE3",
/* pixels */
"H.s H.s r r r r r r r r r r r 2 4 4 2 i C F Z F ).E.Q.E.).).).).& $ $ > T.).T.Y.x x U.g q 9 d d t 2 2 t t t r 9 2 r 1 0 z x C G ",
"H.s S s r r r r r r r r r r r r 4 4 t t C S F C ^.E.!.E.^.].).I.; % $ > T.).Y.I.x s g s w 9 8 p r 2 2 r t r r r r t 2 y x Q s S ",
"H.Q s s r r r r r r r r r r r 2 2 3 8 p s H.C F ).I.E.!.'.'.'.P.o o * : P.).).Y.v x H.u e k 0 r i i p i i i q a r r r y x H.C Q ",
"v s s s a t r r r t r a p y t r y t t p s s S H.'.E.E.I.`.'.'.E., , - 5 P.{.).Y.H.v H.x 0 e 0 9 i 7 7 7 i i i i r t r t s s C s ",
"H.g v H.s s s s I.I.I.I.I.I.I.P.'.`./.^.E.E.I.'.^.Q.Y.I.'.'.Y.I.i r r p I.{.{.^.).I.Y.Y.I.I.Y.I.; & ; ; g s S u s s x a r r r p ",
"H.s Q H.s s H.C ^.E.I.).E.).).E.~.'.~.^.E.!.E.Q.'.'.Y.I.'.'.Y.I.r r t p ~.'.'.).).I.).).Y.Y.Y.Y.& % & & g g H.x v v x x r r r i ",
"C s v g s C S s Y.^.).E.E.).E.)._._./.'.E.!.E.'.^.^.).).)./.Y.I.9 r r r R.R.Q.'.{.).).{.I.I.'.I.- o - - C a W k g g x x r r p r ",
"H.s H.C s s v s I.I.I.I.I.I.I.~.].|.#.o.E.W.J.I.^.).^.^./._.I.I.a a t y I.W.I.I.).I.Y.^.I.Q.R.R.+ @ n @ ] ` | ( C S Q z r r r r ",
"H.H.H.H.; ; # & r r r u r r p U 3.t.4.$Xk y i i p p r a i i c y I.I.I.I.y 2 y y v H.H.S x C v R :.i.t.e.y.2.4.OX{ F C C s x v s ",
"s s S x ; # ; ; r r r r r r r H 1.C.Z.,.J q i i t r 2 1 r 1 1 1 I.I.E.K.3 3 2 4 s x Q Q C C H.R i.S.C.C.S.c.c.,.[ F C C s f s f ",
"H.H.H.s ; # # # r r r r r r r H t.C.Z.3.Y i i p r r 2 9 r r 2 y _._./.I.8 3 2 1 x Q Q Q Q x Q R t.C.V.C.n.n.c.4.[ F F Q S v f f ",
"s s x t 5 ; ; ; r t r a r r t m +Xt.y.=.Y i 7 q p p 9 9 W N I n  .$...[.t 3 r u a x Q V V C s E $Xt.1.t.2.,.4.OX` Z Z C v v H.H.",
"H.H.H.H.P.I.I.I.s s s s s s s C ! ' } } - & ; ; s C C [ OXr.t.N.y.y.,.OX_ x u a y t d p p i t i I J H J Y H J I i r i a s C Q S ",
"s s s C I.{.Y.^.H.s g Q v Q s H.g C W z %   % # s C Z | r.Z.k.k.j.n.c.4.} Q Q H.r t 8 8 i i t r r y 9 a q q i 9 i r r r s C S C ",
"H.H.v s {.I.I.I.H.H.s H.S s s x x W C C ; & & & x Q C ` 1.B.V.k.k.k.n.1.' F C s r t 8 p 9 e r r r r r 9 r r 8 7 9 0 r p g H.H.Z ",
"v C H.s {.E.).I.H.H.s S x v C H.Q Q H.S & % > & s x s E :.t.t.t.u.w.x.%X{ Z C C i p p i a 0 y r t u r r a i h p a 0 r t S S C C ",
"s S s H.I.{.Y.'.'.I.Y.I.r r r r i p r r t t 8 r y 2 r a m H E j H H Y e i i 9 i I.{.).I.'.P.K.I.I.I.I.I.I.I.Y.I.Y.P.Y.I.; ; 5 ; ",
"H.H.s U.I.^.'.Y.I.I.{.I.u r i p p t y t r p 8 7 r 9 y i 9 r 9 r 0 9 y q r a r a I.).I.I.'.R.E.Y.E.I.).{.'.I.I.^.{.I.Q.I.; # ; # ",
"s s s H.P.Y.I.{.{.{.{.I.i r 5 r t 7 r r i p i i q q 7 i i i i i 9 9 q 7 q i r p I.Y.!.!.E.E.^.^.{.I.E.{.Q.I.^.Y.Q.^.{.P.; # ; % ",
"s H.x H.I.I.I.I.I.I.I.U.u r r r r t r 9 g p a ! N J A T q i p p i w i V q i 5 t !.}.}.}.o...$.$.'.I.I.I.I.I.I.I.I.I.I.U.r # ; # ",
"r r r r t a r t H.H.H.H.x g x s Q z x W.vXlXlXfX*X<.t.:.Y ; t > s s s C 5 5 - r vXlXcXkX*X4.N.%XY r r r t y r i ; ; ; r p s H.g ",
"r r r r r r r r s s s s H.C H.Q Q W Q v hXlXxXjX2Xb.G.y.L 9 u 2 f g g s = - o ; cXxXxXjXM.g.A.i.m r r r r r r r ; # # ; s Q H.s ",
"r r r r r r r r H.s C s H.C s C ~ W z / lXlXxXdXM.h.j.t.L e 1 1 s v g f & %   < cXxXxXjXM.g.C.e.H r r r r r r r - # # ; s g Q H.",
"r p r i u r r r s s S s K.U.K.L.[ ` ( } fXjXdXsXD.V.A.w.+.K j k x v f g & ; % 0 dXjXjXsXN.g.A.e.Y i r r p y r r ; ; ; ; s s s s ",
"'.^.I.I.I.I.I.I.H.s s U.gXxXxXkX*Xy.t.2.>X>Xd.d.p.6.6.p.s.t.3.@XE s s v Q z V [ *X2X2Xi.w.6.5.e.X.I.Y.I.I.I.I.I.I.I.I.I.# ; ; ; ",
"Q.Y.).E.'.{.Y.{.H.s s H.cXxXxXjXM.C.n.V.s.s.a.a.7.6.p.p.A.A.S.2.' Q g v x W Z ' 2.b.S.V.p.p.s.8.$.Y.'.'.).E.).E.{.).{.Y.; # # # ",
"Q.I.E.I.I.I.I.I.C s H.U.cXxXxXjXN.C.C.V.s.a.7.7.p.q.w.p.k.A.n.2.R f s v x W { ] e.Z.A.A.p.p.s.;.X.Y.{.I.'.Y.E.).I.).E.I.; # ; ; ",
"{.^.{.I.).I.I.I.H.s s I.gXxXxXdX&Xt.t.t.8.9.9.9.8.;.;.;.0.0.1.$X^ l x u v s W ` :.e.w.w.f.-.;.OX .I.I.I.I.I.I.I.Q.E.^.P.5 ; & # ",
"s Q x S v H.H.H.x H.H.u H.p i C U N m I H H H N m I I Y Y H K j 0 0 1 2 > $ $ , I J Y Y J H I k a t u i y p y p s s x U.u s Q v ",
"H.g S x C s x C H.s s s r a r r t 8 8 r 9 0 r r r p r r r r 9 q 9 r y 1 . . . & , 9 r r 9 9 r r r r r r r r r r H.v C H.C g S s ",
"H.S s C s x s s s H.H.x r r r r r 2 r i 9 9 1 1 r 8 3 2 2 r i i 5 9 e 5 = X % & 0 y r y 0 i i p t r r r r r r r s s s s C H.H.H.",
"v x Q H.L.L.L./ R ' R T a r r r 0 1 p s 9 1 y 4 t 8 t r r r i i C C Q a i 7 9 9 a y r r y i p p i i i r r p t y S S H.S v x g x ",
"x x C / qXwX0X5X;Xt.1.+Xe # # 5 P.`.I.E.2 t 7 r S S C s H.z x J.gXlXcXzXqXqXrX<X].R.I.I.'.P.I.)././.~.I.T.T.I.E.Y.Y.I.{.I.E.Q.K.",
"f x Q / wXyXpX6XD.j.g.t.n = # - `.`.'.).r t t t S C C C Q u l v hXxXxXxXaXiXiXyX].^.{.E.].P.{.{.).^.'.I.Y.Y.).'.).).).'.^.I.K.K.",
"f g p ~ aXiXuX3XD.A.C.M.@ # # & Y.).).).r r r r s S g U.s s C U.cXxXxXzXpXpXiXwX.X/.{.E.{.I.E.W.!.!.W.W.Y.Y.^.{.^.~.'.].).).Q.Y.",
"D g g P.8X9X1X5X;Xt.t.OX+ # % & T.).^.I.u p i r t s g p P.L.(.`.dXjXjXdX6X6X4X4X%.@.#.[.).Y.E.W.K.W.W.E.R.I.I.~.'.R.'.'.T.T.).Y.",
"D D s y ! W T U H J J Y r 2 2 r t t r y 7 7 r 1 y y t Q 8XrXeX5X:XM.2XF.b.b.b.i.x.x.>.*.T i r t t t a w r a y y R.E.Y.!.H.H.H.~ ",
"D S v x , 9 9 9 9 < r 5 t 3 2 2 3 2 9 y r i r 1 2 2 ; V rXiXpX6XD.h.V.V.g.l.n.C.j.z.B.4.H 7 i p r r i q 9 9 r r W.!.Y.T.H.a V Q ",
"L.x l l r i r 2 2 4 t 2 2 2 7 r i i e 9 i r < 1 y r p V 0XuXuX4XF.n.V.V.l.l.v.n.j.z.g.,.J q w 9 r i i i i 8 8 t R.'.{.T.S s H.L.",
"C Q x z T I U k 4 3 3 t 2 t t i B A Y m V i r y y r 7 C <XyXwX1X;X1.i.t.x.x.<.y.u.t.M.$Xm 9 a r r i i i i p h i ....#. .Q s C S ",
"D f g R $Xy.2.$XX.I.K.I.r 9 9 M XX-X#XXX X_./.~.E.K.).Y.V w V V e n n n K K J Y $.%. X$.}.T.T.!.K.K.Q.I.Q a F { 3.>.4.%XR Q Q C ",
"g f H.R y.C.C.M.$.].^./.y y i N -X,X-X#X X_.^.'.I.P.Y.Y.z , r 2 = = 6 6 9 0 q i _._._._.T.T.!.!.W.!.E.R.Q s F ' t.g.g.1.R C Q x ",
"Q z Q ' t.n.b.2.$._.).{.w r i B -Xd.-XXX X/.^.{.{.E.{.P.0 , 1 1 $ % * = 2 r 9 a ~.)._.{.I.I.Y.E.R.P./.~.v g U.R y.n.Z.2.' S s s ",
"z z x } @X%X3.&X .^.^.I.y y i B XX9.#XoX X_.^.Y.^.I.E.J.k 0 y 4 & > ; ; 2 r 0 9 I.~.I.P.[.[.]. X#.%.%.|.Q g D ! @Xy.2.OX^ s s s ",
"; ; - O [ [ R U W x H.v u l C ! n N N ! Z S S H.v Q H.Q C V g g K.I.I.K.).).^.^.U.H.C ~.qX9XrX5X:Xu.e.#X|.Q.Q.{.|.$.$.X., % ; ; ",
"$ # - - S G v x s x s g l x C C V q q p S S S f s x x x s S S G ).{.E.I.)._.).^.g s s ~ yXiXpX3XD.A.Z.y.%.R.!.Y././.].P.& % ; - ",
"; = ; - C x z z ~ ~ Z C x l s g r 2 : r S S g v v x x x s S S C P.Q.E.E.)._./.^.f b x o.rXpXpX3Xb.j.S.i.&._ W.W./.].{.I.& % = 6 ",
"= 7 = , R } ( ( ] | ] R x l f f 3 r 3 t s C s x x x l u s g C H.].[.].}.}.}.}..X_ E E | 5X3X3X7XD.V.A.u.&.@.O.X.P.^.{.K.& $ ; 6 ",
"S C S { 3.t.t.0.u.u.u.+XU t t 3 2 r t 2 r r 0 y r r 9 1 t 3 2 z qXrX0XtXcXxXxXkX*X2.>.0.d.d.d.s.p.p.6.5.w.D.y.$XI y r t x x v H.",
"S C s ' u.A.l.C.j.g.C.N.j 2 t r i r 2 2 y 0 2 r r a 9 9 8 7 : a rXiXaXaXzXxXxXjX%Xc.g.C.7.a.7.p.p.5.5.p.V.A.A.e.J r r t x v s g ",
"b u x ) 1.C.A.j.A.V.C.1.K < 1 ; p 8 r r r r r r 9 0 9 i i 7 i Z eXuXuXaXzXxXzXdX2Xc.z.l.6.a.p.6.5.6.q.q.S.b.Z.2.I r r i s x v f ",
"l u x _ OXt.y.y.0.t.w.:.} w W ! N m J I 9 7 t 3 0 y i i 8 V i B wXwX0X9XjXjXfXsXx.g.g.C.-.8.;.;.;.;.:.;.<.2.,.+XI y i i s H.f f ",
"H.Q C V [.X.X...' n L | <XrXyX5X:X0.4.*.[ S g h x z g s i q i i i V k ( 3.N.F.F.z.l.A.w.P n I T ] ] ' ' ) } } [ R.R.~.^.'.'.Y.Y.",
"~ ~ ~ Q {.'.Q.{.9 5 M M 9XuXuX6Xb.z.B.,.' G g g x x f g i 7 i t t 2 , j >.B.n.h.l.k.A.i.I < 2 2 C V V a a z Z Q R.E.{.{.^.I.Q.Y.",
"Q Q L.C I.K.Y.E.s i 9 M yXaXuX3XD.g.C.3.' F D g x c v s i r p 8 r r 9 I 1.Z.n.C.A.k.A.e.Y y r 2 Q Q C x x Q Z Z R.R.'./.^.^.I.I.",
"Q s C S K.!.Q.K.r 9 0 a qX0X0X5X;Xt.2.@X{ G D g x c v f 9 r p 8 p r r k @Xy.1.t.x.0.i.&XI 9 r i [ R ' } ) ( [ [ R.W.I.^.^.{.Q.I.",
"l b S S f v S F S C x s V V w m N Y H m i t t r r 9 r i 9 q i r C C s Q ^ E ( ( ..O.@...`.R.I.`.%Xx.x.t.0.t.u.$XE y r p S S S H.",
"l x s S s s S S Z S x s a q r r r 7 i i r t r a i i p p q w i r C C C g s v x Q E.^.`.'.`.'.].$.y.V.C.k.j.C.g.y.H r r t g S S C ",
"v v C C b l Q Q Q x v u i 7 2 r t r r 2 r r 1 r r r i i r 0 y y s C Q C g S Q C ).).)./.].].'.@.y.b.C.C.V.C.V.e.I r r t g g s Q ",
"g s C s u u u s s s l u i r t t r r : 2 t t y a i r i r r 1 4 3 x C C H.g g S Q ).).Q.'./.(.~. .@X2.t.t.t.y.e.#XI r r u g g C Q ",
"r t i t 2 t t t t t r r p t r r 5 = 5 5 U.Y.K.I.I.I.I.P.v g b f l x Q x g g g g g v l u p p t i m I K K J L L B z c u s S S C Q ",
"r r r r r t r p p 7 t r r i r r = = # - I.{.Y.).'.R.I.I.v f g f x x Q x g g g f f v l l t t r r r r 0 e q i B V x l s S g g s z ",
"t r r 9 r 8 r i i r t p i e r r = = o o I.!.!.K.R.I.{.Y.G G Q Q g g ~ W C S Q Q C g g f t r 9 y r 2 0 1 2 r i i l x x H.g g s x ",
"t r 0 0 t t i r i i p i 9 9 q i = ; o o !.Y.Y.Y.E.E._.).G S ~ Q D S W W Q ~ ~ ~ S D D g t 2 1 y y r y 2 t t p p x l x H.G f v x "
};
