/* XPM */
static char *_d1140d1773d4e30fdb6e8b884712b92gOddTfUk7qDqcbxz[] = {
/* columns rows colors chars-per-pixel */
"64 64 234 2 ",
"   c #0E0D0D",
".  c #110E0E",
"X  c #13100F",
"o  c #0E0E10",
"O  c #120F11",
"+  c #0F1011",
"@  c #151213",
"#  c #1A1416",
"$  c #1B1916",
"%  c #171618",
"&  c #1C1619",
"*  c #1D1A1B",
"=  c #21171B",
"-  c #221B1D",
";  c #291E1C",
":  c #24211E",
">  c #2A221E",
",  c #32251E",
"<  c #1E1D20",
"1  c #221720",
"2  c #241D22",
"3  c #291E23",
"4  c #1E2020",
"5  c #252323",
"6  c #2B2324",
"7  c #2D2A25",
"8  c #272628",
"9  c #2C252A",
"0  c #2D2A2C",
"q  c #322425",
"w  c #332B26",
"e  c #3B2A24",
"r  c #32252C",
"t  c #39262C",
"y  c #322C2D",
"u  c #3B2B2C",
"i  c #3D3023",
"p  c #34312C",
"a  c #3B312C",
"s  c #2E2C30",
"d  c #332730",
"f  c #342D32",
"g  c #3B2B33",
"h  c #353234",
"j  c #3A3435",
"k  c #3C3936",
"l  c #353539",
"z  c #3B363A",
"x  c #3D3B3A",
"c  c #442D29",
"v  c #582F2B",
"b  c #48342E",
"n  c #422D33",
"m  c #433935",
"M  c #493937",
"N  c #4C3B35",
"B  c #423C3C",
"V  c #573B35",
"C  c #703A33",
"Z  c #43423E",
"A  c #4C423C",
"S  c #54443D",
"D  c #64433C",
"F  c #76443C",
"G  c #3E3C40",
"H  c #443E42",
"J  c #483D42",
"K  c #454242",
"L  c #4B4444",
"P  c #4A4847",
"I  c #4C4549",
"U  c #4E4A4B",
"Y  c #574947",
"T  c #534C4C",
"R  c #53514E",
"E  c #5C514B",
"W  c #544D51",
"Q  c #565253",
"!  c #5B5454",
"~  c #5D5856",
"^  c #5D565A",
"/  c #5E5A5B",
"(  c #654A44",
")  c #774A44",
"_  c #68524D",
"`  c #79524C",
"'  c #645855",
"]  c #635C5D",
"[  c #6A5D5B",
"{  c #765957",
"}  c #5F605B",
"|  c #6B615E",
" . c #77625A",
".. c #655D61",
"X. c #6A5D63",
"o. c #795F65",
"O. c #656263",
"+. c #6A6364",
"@. c #6B6967",
"#. c #6C656A",
"$. c #6D6A6A",
"%. c #786967",
"&. c #71676B",
"*. c #726B6D",
"=. c #72716D",
"-. c #6D6A70",
";. c #736D71",
":. c #796E74",
">. c #767173",
",. c #7B7375",
"<. c #7C757A",
"1. c #7C767A",
"2. c #843F3A",
"3. c #84433B",
"4. c #874C46",
"5. c #924F4C",
"6. c #86534A",
"7. c #96574B",
"8. c #895753",
"9. c #8C5B55",
"0. c #995853",
"q. c #A75852",
"w. c #A45B56",
"e. c #A45E59",
"r. c #8E645E",
"t. c #99625C",
"y. c #A66359",
"u. c #A4645C",
"i. c #B2675E",
"p. c #8B6A67",
"a. c #986964",
"s. c #8D726E",
"d. c #827574",
"f. c #8F7675",
"g. c #81777A",
"h. c #837B7D",
"j. c #8A7D7D",
"k. c #9B7674",
"l. c #A76A64",
"z. c #AB6B64",
"x. c #B76B66",
"c. c #AC7269",
"v. c #B5746C",
"b. c #BA766C",
"n. c #A87A75",
"m. c #B77A75",
"M. c #BC7A73",
"N. c #C46E6A",
"B. c #C87870",
"V. c #C87C76",
"C. c #89807E",
"Z. c #96837D",
"A. c #B6816F",
"S. c #A6847C",
"D. c #BA837B",
"F. c #C5857A",
"G. c #CC847B",
"H. c #D2857A",
"J. c #7F7981",
"K. c #857D81",
"L. c #8A7F82",
"P. c #8C8284",
"I. c #8A8487",
"U. c #928584",
"Y. c #968787",
"T. c #948B8C",
"R. c #9A8D8D",
"E. c #9B908E",
"W. c #958D91",
"Q. c #9A8E92",
"!. c #979294",
"~. c #9C9293",
"^. c #A88B86",
"/. c #AF8D8A",
"(. c #A39595",
"). c #A79797",
"_. c #A49B9C",
"`. c #AB9C9C",
"'. c #B89B98",
"]. c #B0A29D",
"[. c #AB9EA1",
"{. c #ADA2A3",
"}. c #ABA8A7",
"|. c #B2A4A5",
" X c #B9A7A6",
".X c #B5A9AB",
"XX c #BBACAB",
"oX c #BAB2AC",
"OX c #BCAEB1",
"+X c #BAB4B4",
"@X c #C88C86",
"#X c #D78A84",
"$X c #D99589",
"%X c #C99893",
"&X c #D99B95",
"*X c #E2978D",
"=X c #E49B93",
"-X c #E69B94",
";X c #D1A19C",
":X c #E9A597",
">X c #F1A997",
",X c #C7A9A8",
"<X c #CDAFAC",
"1X c #D7A9A3",
"2X c #C2B4B5",
"3X c #C6B8B9",
"4X c #CABBBC",
"5X c #D6BBB8",
"6X c #EFB0A8",
"7X c #F5B7A8",
"8X c #EABAB3",
"9X c #F7BCB4",
"0X c #D2C0BB",
"qX c #EAC3BA",
"wX c #FCC6B6",
"eX c #C8BFC1",
"rX c #CBC4C5",
"tX c #D4C3C4",
"yX c #DAC5C5",
"uX c #DBCBCC",
"iX c #DECCD0",
"pX c #DBD3D3",
"aX c #E6CAC9",
"sX c #F9CBC1",
"dX c #EAD2CE",
"fX c #FBD4C7",
"gX c #E3CED1",
"hX c #E4D3D3",
"jX c #EBD8D7",
"kX c #F5DCD7",
"lX c #F6E0DB",
"zX c #F8E7E7",
"xX c #F4EAE9",
"cX c #FFF6F3",
/* pixels */
"            .   X   . X         O @   .     O o       & 9 6 # 2 @ @ o 3 2 9 l H [ d.W.XX~.P.~.W.X.^ -.:.-.-.-.X.W W -.>.1.P.<.<.",
"  . O     @ X . @ . . O . . . + @ @ X @   @ * % @ @   * d 6 & 3 # + O 5 5 8 s H X.d.L.~.L.L.~.P.;.^ -.<.<.>.;.-./ / O.O.-.1.#.*.",
". # & O @ = * @ * @ @ # @ @ @ % ; # % @ @ % 6 < * @   * d 9 & 2 @ @ + 5 8 0 z H ' d.<.C.:.h.W.1.#.Q &.&.J.J.>.>.-.#...>.h.>.X...",
"O & = & & 2 * % * & % & & * % & 3 * % $ @ # 6 3 - &   - d 9 & < @ @ @ 0 h k h f T =.<.$.1.K.Q.*.^ ..&.....1.J.1.K.:.-.K.h.I.#...",
"O & = & & 3 = # & & # * @ * # # 1 < # @ O & 9 3 - @   2 d 9 & 2 @ X $ p x Z 7 y J ^ <.] C.E..XI.+.+...^ #.-.-.:.I.1.K.>.$.>...Q ",
"@ & = & < 3 & & & & @ # @ * @ & 1 * % % & < 6 3 = @   2 d 6 % 3 : w k S ! T p 7 j I ! I ,.{.3XI.>.@.! ] ;.#.#.h.P.J.I.$./ / ] T ",
"# = & = 1 2 & & & & @ & @ - X & * & & @ @ - 9 6 - @   ; y 8 - t M Y A Y ~ | L r j I Z P >._..XE.T.h.[ ] $.>.-.h.I.h.1.../ ] X.U ",
"# & & # 2 2 & & & % @ * @ = X # - = $ & @ - 9 9 * @   3 t 6 j Y +.| ' ' ~ ! A M B T U ! ,.`.(.~._.I.I.*.:.h...:._.h.*.X.$.+.] J ",
"& & & # 1 3 & & & % O - O & @ # * * % % % 1 9 9 - X   2 u k S Y _ ' ' E =.%.d.=.E ! O.| ,.E.E.(.[.I.Q.T.L.] K O.{.Y.X.*.,.$.W k ",
"= & & & 1 3 O & & O O & O - @ @ * 1 & & @ * 9 d 2 @ . 6 M _ S A S Y E S %.| C.2XE.| | ,.T.).~.E.{.Q.I.W.Q.W x ! W.I.<.:.h.:.H J ",
"1 = & & 1 3 @ & % @ + & O - @ @ & 1 # & @ - 9 d 2 @ + 7 Y ( S S Y S A E [ k P ~.rXC.| !.}.2X_.!.}.{.!.[.~.U I ..L.g.&.<.!.$.I ^ ",
"1 & @ < < 3 & & # @ O < @ = @ @ & < & < % & r d 2 @ $ N S A A N S A i ' | Z p T +X[.C.T.2X.X[._..X.X[..X~.W W W #.<.#.:._.#.K P ",
"1 @ @ 1 = 3 & = # @ O - @ 1 @ @ # 2 # * % - d d 2 @ u S A b m A m b j E [ Y a Z $.!.P.E..X`.XX.X.X.X{.OX_.^ ..W Q <.h.Y.Q...H I ",
"3 O @ 1 = 3 & 1 & @ O - # * @ @ * 1 # < @ 2 r y 2 @ A S b 7 , w , w N Y A w > Z P =.!.!.)..X2X2XeX.X.XeX[.^ ..I W ;.h.Q.I.^ J W ",
"3 @ @ 3 2 - - 3 & o O - @ * @ @ & - @ - # < r r : = A A i > , > e S _ ( b > ; k k @._._.|.|.+XpXuX2X2XtX4X^ I J ^ :.<.L.1.Q K T ",
"3 O @ = 1 - 2 3 & O O & # - @ # * 3 % 1 # 2 r w ; : b i i b b v ) t.c.a.S > > p k R C.T.E.+XeXhXrX4X4XrX4X..B J T #.,.I.#.I I T ",
"3 O @ = ; = 3 3 # . O $ # = # # $ 3 # 1 # 2 s d 2 $ e e c b F t.v.@XF.n.` w 7 7 y Q :.<.L.OXgXtX4XuXrX+XOX..z z H ..:.L.^ H H I ",
"= O # 1 1 ; 1 3 @ . . # X $ @ # & 3 # 1 @ 1 r d : @ q i c C t.v.F.#XF.c.9.i > w u ' :.L.L..XiXtX3XpXuXXX.X..z G H W #.<.I x j f ",
"; . # 1 3 1 = 2 @     # @ & X # & q @ = O - 9 r : @ > N D 6.b.F.H.#XV.v.r.m , a h T ..X.K.).3X2X.XXX4X2XXX^ G H U Q ..#.K l 0 8 ",
"1 O # = 3 2 = 3 @     # # $ . X & 9 # = O * 9 d : $ , S r.u.#X$XH.G.G.b.a.V > e Z ~ J J X.L.2X.X|.E.).3X[.W H H Q ^ #.^ G h 0 7 ",
"1 O & & 3 = 1 3 #     # # $ O @ @ r @ = . & 9 r 1 @ 7 ( u.V.*X#XH.G.G.A.c.S , w A R x K T :.OX2X3X|.~.eXQ.J G I ^ Q / x h f 8 7 ",
"1 o & & q 1 = 3 O     # # & O @ & r O @ . & q 9 - @ * D v.#X*X#X#X$XH.F.v.t.b i B p k L T &.OXtXyXtXOXtXW.G g J W U K 9 f 9 8 r ",
"3 O @ & q 2 = 6 # . . $ # # O # O r @ @ o & q r - @ @ ` @X-X-X-X$XD.z.v.c.u.` i k B K W I g.OXtXhXuX4XtX[.H s z J W j 5 0 5 5 9 ",
"3 O & & r 3 = 3 O   . # # & O @ O r @ @ o < 3 r - X @ _ &X-X*X-XV.4.8.u.c.u.` a Z U K L L L.Q.4XjXhXyXyX.X..s f G H 8 : h 8 5 0 ",
"3 o @ @ q 1 = q # o   & # & O @ & r O &   & r 3 = . %  .&X#X#X#X8.6.c.z.e.l.` u p k k p K ,.L.4XzXzXgXiX.XL.l d l y 6 > f 0 8 0 ",
"3 O @ O 3 ; = q & o   @ & # @ # O r = O   = r 9 & @ * _ m.V.V.e.4.t.e.e.z.e.) > : 7 7 > j ] Q.2XjXcXjXiX[.P.B 0 d 7 : 8 j h 8 y ",
"3 O @ O ; = = r & O   & = # @ @ & r & O o & d 3 & @ * N 6.5.M.e.0.a.0.e.z.e.) , : * : $ y ] {.2XxXcXzXjXOXU.J 0 9 < * 5 f 0 5 y ",
"3 O @ . = = = r = O   @ = # O @ O 3 1 O O & g d % @ @ e ) v x.x.6.) 9.M.b.w.4.q - * * $ 9 ^  XyXzXcXcXcXpX|.^ 9 6 2 * : d 9 8 y ",
"q O O O = = = q & o   # = # . # & 3 = O O = t d % X X , 6.) V.V.l.t.m.#XB.w.5.t = = : ; 3 W ).uXzXcXcXzXhX|.W 0 9 2 * < d 9 9 s ",
"r O O . = = # t & o   # = # . # & r 1 O . = t r % X . q l.z.H.B.V.V.#X#Xx.w.0.c $ - : > 3 J j.4XlXcXzXzXhXXXB d f 5 * * r 9 9 h ",
"r O O O - = $ t & O O # = # O # & r 1 # . & g r $ X . , c.G.#XN.#X#X#XB.x.y.u.M $ > > = 6 Y d.2XkXzXjXjXhXY.l h s 5 * * r 9 8 p ",
"q O O . = = # t & O   O = @ O # & r = O . = g 9 * X   6 c.G.#XN.x.#X#Xx.w.y.y.V # : > = 9 Y U.4XkXzXiXjX3X+.x s 8 2 * * 0 7 8 j ",
"q O O   1 & O r & . . # * @ O # & d 1 # O - g r & O o 3 i.V.#Xx.x.V.H.N.q.m.L.0.3 & ; ; y ! U.XXjXjXhXhX].Y z f 9 < * : s 0 0 z ",
"t @ O   = 1 O r & . . # & @ O % & t 1 @ . 1 g 9 # O o 3 0.N.N.x.i.x.B.i.x.@X@Xl.M ( n * r A s.|.aXkXkXyXh.^ K j 0 9 0 y h f 7 j ",
"t O O   = = # q = .   # - @ O @ 1 g = %   - g r & O & f ` e.q.2.7.N.N.i.x.m.c.8.) /.p.r y J U.XXkXzXuXR.*.,.&.z s f h h l h 0 f ",
"t @ .   = = # 3 #     & = O   & 1 d * &   * g r & # s l Y e.u.7.x.B.N.x.v.l.l.5.4./.%XX.! +.{.4XzXzX4X_.~.j.).T h s y d j d 0 f ",
"q # .   = # O q &     # = O O O 2 d & %   - g d < 0 l s m t.V.x.N.H.V.B.M.l.e.8.0.V.&X8XQ.L..XiXcXhXXXyX3XR.).#.x y 0 9 f s 6 f ",
"t #     = = O q & .   @ 3 O O % 3 g & @ o - n d s l s 8 7 r.y.w.q.e.V.#XV.l.5.8.z.L.<XkXOX[.~.tXxX+X3XuXOXX.X.<.x s 0 9 f d 9 f ",
"t # O   = = O 3 & O   @ 3 O . # 2 t 1 @ + - j l h s 8 < : 9.y.7.0.q.x.L.M.z.r.8.n.'.aXaXtX[.L.iXxX,XeXtX.XI ] #.H h 7 9 g 0 8 f ",
"t = O   1 # O 3 = O   & 1 O . @ 9 g * % . - g s 0 8 < $ : F 0.3.5.5.z.v.l.l.n.L.%X,XsX5XtX).K.jXzXgXyX,X`.^ &.#.H h y 7 y y 8 f ",
"t & .   = # O 3 = .   # ; . . @ r t = X . ; y 0 8 4 4 $ $ w 6.y.e.l.x.l.0.n.,X,X;X'.qXyX+X'.<XiXgXdXaX X`.g.g.#.H h 0 6 d 7 8 y ",
"t = o   = # . ; = .   # ; . . @ r g = # . = y 8 5 * $ 4 : 4 V y.w.w.m.n.a.s.'.,X<XyXaXgX5X9X8X5X3X4X3X`.(.Y.R.+.H s 8 3 f 7 6 f ",
"t = O   = #   1 = .   # = O . # r g = O . * 0 5 2 < * 4 : $ i 9.0.t.n.r.8.p.n.,XdXkXkXgX1X#X6XsX5X<X).`.f.j.(.X.z 8 2 3 g s 7 g ",
"n 1 o o = =   ; =     # ; @ . # r u = # X 5 5 0 7 : * * $ $ = D ) 0.k.` ` p.n.%XaXkXzXkX&XN.*X6X8X'.E.`.R.Y.h.Q H 1 * 5 h 9 q f ",
"@.P * X 1 =   = ;     # ; @ . # t g * @ @ 8 5 p 7 7 : * - % $ : v p.r.) ) 4.z./.5XfXkXhX;X-X-X>X9X5X X X{.U.<.W Q 8 * 5 f 9 9 g ",
"Q @.| l q =   ; = .   = - O . & g g * @ < 0 6 8 : : 5 * $ @ $ $ 3 J ` F C 4.5.n.'.5X4X'.p.-X7X9XsXfX8X2X<.W X.' X.d * 5 d s 9 f ",
"Z P ~ @./ f . = ; % & = 2 O O & u t * @ 8 8 7 7 : : : - $ $ $ $ f l M F C C 5.L.L. X`.{ ` V.-X7XfXsX1XL.W s y &.*.f * 5 y 9 7 d ",
"h k Z P } O.T m j B T Y z # O & u t * * 0 5 7 : : : : - % @ $ $ g s 2 c c v p.f.p./.s.( ^.$X:X8XfXkX1X' I h 1 ] K.j % 5 d 9 9 d ",
"p p k k Z R | P R k p R oXZ.p $ g u & 5 0 5 7 5 : : : * % @ $ 4 k 4 $ * y N %.[ E d.( ' Z.F.*XwXfXsX6Xo.H z < W K.9 * 3 d 9 5 s ",
"p p p p h x Z K R R 4 p ].0XR p n y - 0 8 8 7 : : : > * @ @ $ p k $ $ $ > _ [ E [ _ ( ' a.i.x.*XsXsX&Xf.G z 9 7 H * * : y 9 6 0 ",
"a q > p p a h k x P P p A } k A A u 7 0 5 0 7 5 > - : @ % % $ 4 : $ $ % y Z.`.,.Y.Z.s.E A.t.3.G.9XkXsX/.H G l 3 5 * % - y 6 5 d ",
"n : X $ w p a p s 7 R ~ Z 7 : 7 x w 7 8 4 0 7 5 : 5 * $ $ % % % $ @ $ @ z ].,X X,X'.d.[ %Xt.F b.-XsXsX&XW l l 8 6 * * - r 6 8 0 ",
"u 3 . . ; ; w w , : Z R R p 7 k 7 5 0 5 : 0 5 : : - 4 @ $ % 4 % $ @ @ $ p Y.`. X0X XZ.p.&X9.3.8X1X-X$X$X' l l 9 6 < # * 7 5 8 d ",
"n 3 . . = # $ 7 : > w p k p p Z B 7 7 5 4 w 5 : : : $ % % * $ $ $ % @ 4 * !  X,X5X X).S.F.6.3.:XkX$XB.@XY l l s 2 < & & 0 3 2 f ",
"n 3 O . ; @ & : : $ > w 7 > 7 k x A k Z h 7 : : : : $ % * * % % $ $ $ 4 $ : C.,X'.(.).S.F.7.F i.6X&Xb.V.B s s s < < % < s 2 5 f ",
"n 7 . . ; # - q ; X   > 7 $ : 7 p x P @.| U l 5 : - @ $ $ 4 * % 4 $ @ 4 $ $ Z C. .%.^.S.F.7.3.y.-X:Xv./.g 2 f h < % % < d < 2 h ",
"c q . X ; # # q ; @   - * @ @ > D S A @.} } Q j 4 4 8 P 4 4 4 % 4 % % $ $ 4 8 | ' ^.Y.a.F.A.b.F.=X:XF.n.h 8 l h < < # < 9 2 < h ",
"n t X . 1 @   3 2 @   - * @ . Y qXD.i Z Z k A P 4 4 }.xX=.4 % 4 4 $ $ 4 $ $ : =.f.).~ a.:X>X:X=X$X$XV.6.y s s h 2 % # * s < < h ",
"n t X @ 3 #   1 3 @ . ; $ X # S.wX$Xa 4 p 7 k Z : R rXI.}.~ / 4 4 $ $ $ $ $ 7 ,.R. .> Z.fXwXwX7XH.x.z.b 8 0 s h < & % * s 2 < f ",
"c t @ O ; #   ; 3 @ X - * $ , 1XwXH.A : U R A 7 : =.I.G +XrXpX-.$ 4 % % $ $ 7 U | Y w ;XkXkXwXwXB.u.` 5 8 0 s h 2 % % * s 2 < s ",
"n c O O ; # . 3 3 &   ; $ @ N 8X7XF.D : } | Y 7 > !.~ x rX!.J.+Xl l 4 % 4 $ 4 4 k U A qXwXwXwXH.i.6.e 5 5 8 s s < < & = 9 2 < 9 ",
"n t O O 3 & O 3 6 @ . 3 & +  .wX>XA.` i @.| P > : _.} @.pXQ l +X}.~./ 4 $ $ $ $ p R _ 7XwX>XH.i.7.c * * < 5 s 0 & & @ < r 3 < 9 ",
"t c O O ; = O 2 3 # . ; $ X S.wX>Xc.F M =.} A > 4 1.}.rX+XG * / _.@.}.=.Q * * $ : Z D H.H.F.z.7.V $ $ 4 2 2 5 9 < & # & 9 2 < 3 ",
"n n O O 3 $ . 3 3 # X ; $ > %X7X>Xc.S A =./ x > $ 0 T.}.!.x 2 ! @.s eXrX$.U K * 4 : S A.A.A.w.3.> * 4 4 < < < 3 & & # < 9 2 < 3 "
};
