/* XPM */
static char *dd4acb279b284ddb867fee8ec263b5cb1IvEni289nlEx6SP[] = {
/* columns rows colors chars-per-pixel */
"64 64 256 2 ",
"   c #05040C",
".  c #0A050D",
"X  c #0B0A0D",
"o  c #060103",
"O  c #15090C",
"+  c #19120C",
"@  c #0B0613",
"#  c #0C0B14",
"$  c #0E0B1A",
"%  c #080516",
"&  c #120C14",
"*  c #190C15",
"=  c #120C1C",
"-  c #160717",
";  c #0E1115",
":  c #13121B",
">  c #181319",
",  c #240A19",
"<  c #241817",
"1  c #320D0F",
"2  c #28241A",
"3  c #342B17",
"4  c #140D23",
"5  c #180B26",
"6  c #1A1923",
"7  c #191527",
"8  c #1A1533",
"9  c #100B2A",
"0  c #271927",
"q  c #251A36",
"w  c #31152B",
"e  c #2A2429",
"r  c #362828",
"t  c #3A3629",
"y  c #2A2736",
"u  c #352837",
"i  c #3A3537",
"p  c #27322A",
"a  c #192326",
"s  c #511418",
"d  c #641B1A",
"f  c #791D1A",
"g  c #56221E",
"h  c #4E1229",
"j  c #6A1B22",
"k  c #452A38",
"l  c #4F2F32",
"z  c #672427",
"x  c #772529",
"c  c #703137",
"v  c #6C221E",
"b  c #3E431F",
"n  c #494639",
"m  c #4F4D31",
"M  c #645F37",
"N  c #291546",
"B  c #28284A",
"V  c #362B48",
"C  c #3B3647",
"Z  c #362956",
"A  c #3C3658",
"S  c #2A2952",
"D  c #392C68",
"F  c #393668",
"G  c #383873",
"H  c #313072",
"J  c #453A47",
"K  c #463958",
"L  c #51324E",
"P  c #783647",
"I  c #723653",
"U  c #463A69",
"Y  c #533D65",
"T  c #473A76",
"R  c #4C336F",
"E  c #6C2B5C",
"W  c #3A4251",
"Q  c #3C4271",
"!  c #484548",
"~  c #534A49",
"^  c #595446",
"/  c #4A4658",
"(  c #564558",
")  c #595857",
"_  c #49534C",
"`  c #6E4D54",
"'  c #6B6B55",
"]  c #494569",
"[  c #554768",
"{  c #484574",
"}  c #574778",
"|  c #5B5478",
" . c #54556F",
".. c #655879",
"X. c #6B4E6C",
"o. c #7A7877",
"O. c #70696D",
"+. c #5B666E",
"@. c #8C2E33",
"#. c #9F312F",
"$. c #8E403B",
"%. c #883847",
"&. c #903A50",
"*. c #A83D55",
"=. c #904A53",
"-. c #AE4E54",
";. c #885271",
":. c #AF5566",
">. c #867675",
",. c #BA696D",
"<. c #B8665C",
"1. c #CE5758",
"2. c #E5575C",
"3. c #F15052",
"4. c #D8665C",
"5. c #E46D5E",
"6. c #DA5B64",
"7. c #CB5B65",
"8. c #E55B67",
"9. c #D9656A",
"0. c #C86A77",
"q. c #CF6E70",
"w. c #E86777",
"e. c #E77068",
"r. c #778C57",
"t. c #8D8A76",
"y. c #91AF6B",
"u. c #A99A71",
"i. c #ED8D75",
"p. c #D49F79",
"a. c #97DA67",
"s. c #95D56E",
"d. c #A5D778",
"f. c #9BE46D",
"g. c #97E066",
"h. c #353C86",
"j. c #4A3B84",
"k. c #613C8A",
"l. c #574787",
"z. c #554C8D",
"x. c #675686",
"c. c #675A95",
"v. c #765C97",
"b. c #6D4E8E",
"n. c #5B6391",
"m. c #6A6798",
"M. c #766A98",
"N. c #746D8D",
"B. c #5154AA",
"V. c #7458A8",
"C. c #7A69A7",
"Z. c #7976A7",
"A. c #706FB3",
"S. c #596AB6",
"D. c #7279CC",
"F. c #3E4490",
"G. c #8B5491",
"H. c #897090",
"J. c #A87495",
"K. c #866AA7",
"L. c #8976AB",
"P. c #967BAB",
"I. c #8A77B5",
"U. c #9679B8",
"Y. c #8C6AB5",
"T. c #A678BD",
"R. c #AC78AE",
"E. c #D77688",
"W. c #D3748E",
"Q. c #EF7688",
"!. c #E37EA9",
"~. c #967AC6",
"^. c #8B7BC7",
"/. c #AA7EC4",
"(. c #7D8490",
"). c #7A82D8",
"_. c #8A8987",
"`. c #989799",
"'. c #8F8B94",
"]. c #A89B8E",
"[. c #A9A59A",
"{. c #ADA98E",
"}. c #8786AA",
"|. c #9685AD",
" X c #8C87B7",
".X c #9785B7",
"XX c #9694B3",
"oX c #AB8EB5",
"OX c #B8B6A7",
"+X c #AFADAE",
"@X c #9BA2A8",
"#X c #D38D8F",
"$X c #EE8F94",
"%X c #CEAA9A",
"&X c #EBA592",
"*X c #CE90B3",
"=X c #F193AD",
"-X c #C4BBB2",
";X c #EEA6B3",
":X c #ADD486",
">X c #BADD91",
",X c #C7C8B7",
"<X c #D1CEB1",
"1X c #D5E7A2",
"2X c #9885C5",
"3X c #9290CF",
"4X c #A687C7",
"5X c #A989D4",
"6X c #AA97D9",
"7X c #AF95CF",
"8X c #B9B9C9",
"9X c #A9A6D8",
"0X c #B5A8DA",
"qX c #B3AFD1",
"wX c #9498F3",
"eX c #B099E9",
"rX c #9AA4FA",
"tX c #9DB0EC",
"yX c #B7AAE7",
"uX c #BAB4EA",
"iX c #A6A9F9",
"pX c #B7AAF5",
"aX c #BAB6F8",
"sX c #A9AFF2",
"dX c #95A5CE",
"fX c #CA95CC",
"gX c #F29BC6",
"hX c #D2ABD0",
"jX c #FBA7C6",
"kX c #EBABC5",
"lX c #D098E9",
"zX c #C5A6EB",
"xX c #C4B9EA",
"cX c #C6A8F7",
"vX c #C6B9F9",
"bX c #D9B0ED",
"nX c #E6B6F4",
"mX c #AEC2F9",
"MX c #C8C6C7",
"NX c #C7C9D8",
"BX c #D5D7D4",
"VX c #EED3D0",
"CX c #EAE8D4",
"ZX c #C8C5E8",
"AX c #C8C2F9",
"SX c #D5C7FA",
"DX c #D6D6EC",
"FX c #ECD4F3",
"GX c #E7E8E9",
"HX c #E9E8FC",
"JX c #F5ECFC",
"KX c #F4F4FE",
"LX c #FDFDFE",
"PX c #F9F7FB",
"IX c #F4F2ED",
"UX c #DDE3E5",
/* pixels */
"  : ; # : @ % : % % # # X ; X # 8 q W / K V 4 @ @ - # @ # & & # X & X X #   # y _ J e ) '.NXGXGXGX-X'.) _ +.o.O._ i J J O.].' t ",
"@ ; : ; $ ; ; X ; ; # # # X X # % 4 y V K i 6 4 # @ % & & # & # X ;   X 6 @ & ! / u / `.OXUXGXGX-X`.o.o.o.o.O.k 0 0 k ~ ` O.n t ",
"$ X 6 6 $ $ : @ $ # # $ # ; ; ; % 4 4 7 V u $ $ # = & # # # # $ ; X # # X # y C y _ `.MXDXGXBX[.`.>.o._.o.) J - - , L ( ( ~ l i ",
";   $ 0 6 $ $ 4 # % % $ # # % % $ 4 % $ a y 4 $ @ % # $ # # # # : @ $ ; @ 6 y e ! '.8XNXBX,X+X`.'.>.o.+.J , - - , w L X.X.` n ! ",
"@ X @ 6 u 6 $ = 4 4 $ 4 $ % $ $ % # % % $ y y 6 $ # # # @ $ # $ % 7 # # 6 6 6 ! `.,XMX-X-X`.[.'.o.+.! u * & , w w k ` X.O.` L i ",
"@ ; @ = V C 7 @ 4 % % $ 9 # $ 4 # % $ # % a C 6 # $ # ; $ # # # $ % % ; ; # ! @XMXBX-X+X[.].].' ! u * . & < w u u E X.X.X.` u 0 ",
"@ & $ # y J C 8 4 $ 4 5 5 4 $ % % ; # # % : y : @ # # % # # $ $ $ % ; ; ; W `.BX,XOXOXOXOX].' t > ; O : 0 e u k L E X.X.E J w , ",
"& @ $ = 6 C / J V V C A C y 9 $ # ;   % ; ; 6 6 @ @ # # # ; ; # # : ; X _ OXBX-X].OX-X].{.OXm 2 + = 6 r i i r k ` X.` X.L k , 0 ",
"& . = = = 7 y A K C C K [ / y $ X $ %   ; ; X ; X   ; $ X ;   # % ; X _ @XOX:X`.{.[.t.t.{.t.l + & > e e e < < ~ L ( I L J 0 - - ",
"= @ @ = $ $ : 4 4 5 7 8 V C C y ; X   ;     : %   $   ;   X > # ; ; ) _.[.{.`.[.{.r.' t.t.l 2 + * 6 : - O * J L L k 0 , , 0 , , ",
"6 & # = = = 4 : 4 4 $ $ 4 7 8 7 y y     : X ; o X X   o # ; X : C r.[.OX,X,XBX,X{.' 3 M l + < 0 0 = 7 5 > e J i 0 0 w w 0 , * * ",
"C u y 6 =   % % 4 $ 4 % % @ $ $ : C 6 X #     X     u ) _ > _ _.@X+XOX,X,X<XCX<X,X' n 2 + O k J.N.L y 0 e J e u 0 e r 0 < > * * ",
"a : 6 6 : $ : : % # # # & $ : $ @ & 0 6 . # : :   C +XMXMX_.! _.@Xo.CXCXCX<X,X,XCX' 2 O * w w oXbXoXE u u C 0 e e e , * & O O O ",
"e : @ @ $ $ $ % $ $ $ ; $ @ X X : @ ; : : : o o ; `.`.o.'.MX`.O._.t.,XIXIXCXOX:Xt.p < - - 7 [ oXbXFXb.L u q 7 : = & = - . - - * ",
"y 6 X X % ; $ ; ; # # # # # X X . & & . # . > > e `.`.O.k `.UXO.o.t.^ ,XIXOX' m 2 : & > - Y L.P.lXnXR.V w 5 7 = - = - X & > u k ",
"e ; # $ $ ; $ # ; % X # # # % # . & . - . i O.~ e `.+XPXBX( -X+Xn t.~ ^ ' m b a m r.O.B Z x.H./.lXbXfXL q q - = = = - * 0 k c L ",
"; ; ; # X # $ # & @ : # # $   = & O o 2 ' -X].~ 3 _.+XUXLXo.r.@Xt ' _ +._ p a _ +XGXDXV L b.Y.T.lXnXlXY y 5 5 5 - 5 - , k P P :.",
"; ; ; ; ; 4 $ X . # # o @ : = - o + ^ {.BXCX^ n + ) ,XLXLXo.H._.e _ t.W a a +.BXKXPXO.7 R X.R.T.lXnXbXX.q 7 > - @ 5 - w c %.-.q.",
"; X X X @ @ % # . o O . o o o O r >.{.<X1XVX3 m 2 m [.CXCXt.[.' t ! a ; a W (.UXLX`.7 V ..G.T.T.lXlXfXb.q = ; @ - - , w P -.1.4.",
"; ; & : & @ @ : - O e r t t t ^ {.<X%X{.<XCXm 3 g + >.[.+X[.].) e ; : a r.(.W DXNXB y } | G.T.T.lXT.G.Y q : # ; - - , j =.7.2.3.",
"0 : @ @ = = # . o e >.' ) r.].CX<XOX{.<X<X%XM o ' t + m t.o.' + ; ; ; a NXKXNXDXW B ]  ...K./.Y.Y.b.} Y 5 - # ; . , h %.1.8.3.3.",
". 0 u i 0 $ - * O o ' [.>.l M CXCXOX%Xu.' M b l ^ 3 + + < 2 o ; > @   y (.qXdXW 9 W | x.v.4XT.U.k.R } R 5 & ; X , k P :.6.2.3.3.",
"# > e J ( J 0   = . w n n n ' u.<Xt.' ^ m t 3 < O > O & & & ; # % $ 9 y 8 9 B B | | x.x.v..XU.U.T { [ K , - > < r L =.0.9.2.6.2.",
"# & & ; > e y y - * X O + + < < < 3 2 2 2 + + + =   $ = $ @ 4 % 9 '.XX] +.n.n.m.m.x.m.v.U.T./.K.b.} K k , - 0 i n c ` :.-.-.-.#.",
"& X @ & X X # : = % 5 7 - & & * O J @X[.+X`.! +.o. .  7 % $ y % q 8XHXZX(.XXZ.Z.m.Z.c.C.2X4X2X.Xb.Y E w , O O & 0 k L x j d d f ",
"@ ; ; ; X X # & 4 9 H...7 $ = @ # +XPXKXLXMXV ..LX8XB % (.dXC y 8 XXJXHXAX9X9X9X9XeX2XC.2X.XU.P.} L R k , 0 - # . < 1 1 1 s x =.",
"X ; X X X ; $ @ 4 ] SXqXx.A q 8 @ N.DXLXLXKX+XDX8Xy 8 ] NXKX'.y y | GXKXHXuXZXAXAXAX9XA.2X.XI.P.x.L P.'.w 4 6   & . O 1 h x =.0.",
"# X X X X ; & @ 8  XSX0XL.M.l.] C 7 C [ '.DXNX..8 V  .| 8XKXNXC a B ZXPXPXDXmXAXvXaXpX2XC. XL.L.x.U 0XDX'.4 6 # & O w z c %.-.7.",
"@ % X X ; X . = 5 oXSXvX6X2XC.x...[ K V V 8 7 q ]  ...N.DXHXHX .a 8 '.KXKXZXuXAXaXaXaX6Xc. X X}.x.Q @XDXHX+.; # o , l c x @.*.8.",
"8 ; X > 2 2 > = q  XFXyXpX2XK.L...m.| [ [ [ ] U ] | M.XXFXKXKXoX6 7 / HXKXqXAXmXaXaXaXpXC.Z.}.}.N.{ m.dXHXZXC 6 , + s c &.@.*.8.",
"C q 0 e i ! k e 5 ..bXvXvXyX~.~.I.x.x.c.} } | } x.M.2XqXDXKXHXZXV 6 y 8XPXqXZXuXaXaXaXsX2Xm. X XZ.{ n.(.8XJX-X( l s 1 d $.$.#.7.",
"! ! i t b m ' ' ) [ 0XFXcXbX6XY.~.I.K.l.v.} x.c.C. XxXxX0XFXPXHX .7 : ..qX9XuXAXaXpXaXuXtXm.(.}.Z. .z.(.4XbXFXJ.X.=.l s z @.#.-.",
"b m b y.y.1X1X1X<XX.N.SXvXzXzXU.U.U.4XI.M.N.l.x.2XyXxXuXyX0XSXPX`.7 7 8 x.0XvXvXuXuXmXuX9Xm.(.3X(.] Q m.3XtXSXbX>.` ` x s x @.:.",
"y.y.d.1X1X1X1X>Xm ) K .XyXP.|.v.v..XU..XU.L.Z.m.0XyXyXyXxXyXyXuXm.8 4 A dXSXAXsXAXqXqXXXZ.Z.Z.(.Z./  .n.3X3XxXSX`.;.=.P d x @.<.",
"d.d.d.f.f.1X>Xm ^ k q Z XXx.] | } K.P.|.|.|.P.m.6XuXuXvXvXyX6X6XZ.l.F n.aXaXvXuXn. . .| Z.9Xm.XX(.W Q n.3X).pXSXhXH.P %.z j @.:.",
"f.f.f.f.d.d.' n u 0 = = ( N.F { T ..|..X|..XL.M.2XyXyXeXyXyXxXuXuXvXuXyXSXuX X{ n.(.DXXX XtXm.}.M.S Q Q dX3X9XmXzXoX;.` c v c <.",
"f.g.g.f.>Xy.t C % 6 * , < X...] [ K H..X|..XU.K..XyXcXuXyXyXyXyXaXuXuX9X}.n.Z.qXUXUXKX(.9XAXm. Xm.B Q Q dXtXdXmXvX7XH.P c d @.q.",
"f.f.g.g.d.r.n y 8 4 O 3 c L [ ] [ K [ L.|.P.oXC.C.6XzX6XyXuX0XdX XZ.+.N.XXDXKXKXKX+XNXmXuXmXZ.Z.z.B Q  .dXmX).mXaXzXR.X.` z @.#X",
"d.a.g.g.d.' ^ 8 4 % 1 l =.X.u 8 A K / O.P.P..XU.V.7XyXzX0X Xm.] | '.8XUXKXLXHXUXPXKXKXDXmXuXZ.A.{ S F Q dXmX).tXaXaX6XH.;.c =.#X",
"d.a.g.g.d.r.n i $ = g ` &.z w 4 4 V K K H.|.Y.U.K.~.6XyXL.] n.qXHXLXIXIXIXIXKXLXKXKXDX9XAXvXA.n.{ B S z.dXmX).).aXiXcXR.X.I =.&X",
"a.a.s.s.s.M n > ; < ~ P c g w - 5 V K [ Y L.U.U.Y.b.~.v.N  XLXKXGXGXCXPXLXLXLXLXHXDXZX9X3XaXA.z.W W S n.tXmXtXS.wXiXpXlXG.I W.;X",
"a.d.s.s.:Xt 2 > 2 k ` c z g 3 ; % V K [ Y b.P.U.U.K.2X7XM.x.oXDXUXLXPXPXIXJXHXZXZXqXmXuXI.pXZ.Q Q S B n.tXmXtXS.D.iXpXcX/.G.*X$X",
"a.a.s.:Xt.1 s l c ` =.x v z 3 > . q K Y Y Y v.P.U.~.C.zXSX0XoXHXLXLXPXGXDXxXxXvXZXaXAX2X3XaXA.A W S S n.tXmXtXS.S.rXiXcXeX!.=X#X",
"a.a.s.r.3 g =.:.<.7.-.f v g g r - 5 q L Y R Y v.2XI.K.~.xXxXxXxXZXZXxXZXAXAXvXaXuXeX3XA.sXpXm.F W S S S.tXiXrXD.B.).eXcXlXfX*X;X",
"a.d.a.b m q.&XQ.w.9.-.f d d g l w - 5 u L Y Z R K.U.2XC.yXbXvXcXvXvXvXvXvXuXwX^.A.V.k.^.iXeXm.F Q S Q S.iXiXiX).B.S.eXzXfXfX=XgX",
"y.y.M M u.&X$Xe.e.6.1.@.f d d l u , - - 0 [ [ N l.Y.^.I.~.vXeX6XcXvXAXyXI.c.k.z.z.j.H V.pXiXc.U Q Q Q m.iXiXiX).B.B.5X7XR.kXgXjX",
"<Xy.b y.p.&Xi.i.5.6.1.f z d z l l w , - - L M.K Z R ~.~.V.~.vXeXC.^.~.c.T z.b.z.j.z.j.h.^.^.z.G Q H Q S.iXrXrX^.B.B.C.P.oXkXjXjX",
"GX(.t.y.p.p.i.5.5.1.1.@.v d z l c l k w 7 V |.R D T j.V.~.V.~.cXcX^.z.R T l.j.l.l.G j.G j.c.G l.Q F Q A.rXrXiXwXB.z.b.H.*XgXgXjX",
"BX@XCX{.p.&X5.5.5.4.1.#.x j g h c P X.R.w N I.L.D Z l.} } C.b.5XyXpX6Xl.j.j.z.j.j.j.j.j.H D { ] { G G A.rXrXrXwXB.b.X.J.;X=XjXjX",
"UXGXCX1X&Xi.i.5.1.#.4.-.f d c d j P ;.kXk.N C.eXT F U U } R l.b.5XuXeXj.j.j.j.k.j.h.j.j.D D T F ] F Q A.wXwXrXrXV.k.H.;X;X;XjXgX",
"MXPXIX<X&Xi.e.5.1.#.-.1.@.d c g j I :.FXT.Z V.cXY.R R Y b.R T T T C.6Xc.D T j.T j.j.j.T D D { T Q F G D.wXwXrXiXC.G.*X;XjXjXgX=X",
"GX-XIX<X&Xi.i.5.5.1.#.#.@.d z v s P G.nXfXk.V.eXeXb.R R T l.G { R D T R D R j.R j.T R G H F U U U G H S.wXwXwXeX~.oXkXjXjX=X=X!.",
"LXGXCX].&Xi.e.5.4.w.#.@.@.x d x s z X.hXlXY.V.cXlX/.R R R R } T { U N 9 N G R R R D D D D T { { Q H h.S.wXwXeX6XoXhXkXjX;X=X!.Q.",
"JXLXVX{.&X$Xe.5.4.w.8.#.@.@.j x s s I bXnXY.V.lXeXeXY.R L R { U A { R 8 9 N S Z D D D R T { T Q Q H F.S.wXwX5X4XfXkXjXjX;X$X$XE.",
"PXMXGXVX&X$X5.5.2.4.Q.6.@.@.x x d s L *XnX/.V./.eX5X/.} R K A / [ A K K q % 5 N Z D D T { T U { Q H F.D.eXwX4XfXkXgXjX=X!.Q.E.0.",
"NXGXPXVX&X$X8.2.2.6.8.Q.*.@.@.j x s h R.nXcX^.V.lX5X~.K.Y Z V A A [ K Z Z q % 9 Z U R T T { T { Q H F.).eX5XoXhX;X;X=XW.E.E.0.0.",
"GXPXLXVX$X$Xe.2.8.1.2.Q.Q.7.@.@.x E s E nXcX5XV.^.yX5XL.x.K U V V / [ / K C q % 8 Z Y R T { { U Q H c.2X5X4X*XhXkX=X!.E.E.E.7.:.",
"LXLXPXVX&Xw.w.2.2.2.2.w.Q.$X0.*.@.&.h h lXbXcXV.k.2XzX5XK.x.[ K Z A / [ [ / K V q q Z U [ U U { Q T c.P.4X*XhX;X;X$XE.W.E.0.:.-.",
"LXLXPXVX*Xw.9.2.2.6.2.2.Q.$X$XE.:.*.E h R.bXlX~.k.V.5XlX4XK.l.} U K [ .... .( [ K B N K } } [ U ] [ v.P.oX;X;X;X#X#XW.W.0.,.=.&.",
"KXPXLXIX;X0.7.q.1.6.6.6.8.Q.$X=X!.!.*.&.E nXnX/.V.b.~.eXeX2XV.V.x.| | N.N.O.+.X.[ K V Z U | | Y Y [ >.oX*X;X;X$X#XE.0.0.,.-.&.%.",
"LXJXPXPXVXE.7.7.q.4.6.6.8.9.Q.!.=X=XgX!.;.R.lXlXG.b.Y.lXzXyX~.Y.C.M.M.N.H.H.N.o.....( C V K | | Y X.J.%X;X;X$X$XE.0.0.,.:.&.&.&.",
"PXJXIXJXFXVX$X<.<.<.7.6.w.w.w.Q.!.!.!.gXgX!.!.R.G.V.G.T.cXcXyX~.I. X X.X|.|.'.H.N.N... .K Z Y X.` ,.#X#X&X&X$X#X0.E.,.<.*.%.I I ",
"JXJXPXJXFXVX;X#X<.<.0.7.6.Q.w.Q.8.!.!.=XgXgXgXfX!.R.G.Y.zXbXpXyX2X2XdXoXoXqXXX'.H.H.N.N...Y Y ( H.#X%X&X&Xi.#Xq.0.0.:.=.%.P %.I ",
"JXJXHXVXVX%X%X%X{.p.w.7.1.8.8.8.Q.Q.Q.Q.!.gXgXgXgXlX!.T.7XzXuXyXyX6X2X4XqXxXhX+X'.H.H.N...| ..b.].#X&X&X&Xi.i.q.0.,.:.&.c P %.I "
};
