/* XPM */
static char *bc467f65b5894efbfc55b5260588dae4Au6IhLVnAgl0cO0u[] = {
/* columns rows colors chars-per-pixel */
"64 64 251 2 ",
"   c #020202",
".  c #0A0402",
"X  c #040A04",
"o  c #0B0A04",
"O  c #03040A",
"+  c #050A0C",
"@  c #0B0B0B",
"#  c #09070C",
"$  c #120D0A",
"%  c #140C04",
"&  c #0A1204",
"*  c #13120D",
"=  c #191609",
"-  c #080B12",
";  c #0E1315",
":  c #0A151A",
">  c #131413",
",  c #1A1513",
"<  c #13151A",
"1  c #1B1C1B",
"2  c #171A17",
"3  c #100910",
"4  c #271609",
"5  c #351A0A",
"6  c #251C16",
"7  c #341B13",
"8  c #260D0B",
"9  c #1B2309",
"0  c #1C2216",
"q  c #082200",
"w  c #26241B",
"e  c #392517",
"r  c #2B3715",
"t  c #171B21",
"y  c #091921",
"u  c #271E23",
"i  c #331E23",
"p  c #1B2225",
"a  c #1C242A",
"s  c #162327",
"d  c #1D2D32",
"f  c #232423",
"g  c #2C2C2B",
"h  c #282727",
"j  c #372A25",
"k  c #293228",
"l  c #383529",
"z  c #262D35",
"x  c #2A343A",
"c  c #353B3D",
"v  c #3C3B3B",
"b  c #363635",
"n  c #332C33",
"m  c #471A05",
"M  c #45240C",
"N  c #462918",
"B  c #5A2A15",
"V  c #4B361C",
"C  c #563418",
"Z  c #4F2C0C",
"A  c #6F3312",
"S  c #473726",
"D  c #543927",
"F  c #443D36",
"G  c #4C312D",
"H  c #673C21",
"J  c #743F24",
"K  c #374216",
"L  c #384624",
"P  c #3B4339",
"I  c #74411B",
"U  c #46442A",
"Y  c #58462F",
"T  c #47453B",
"R  c #534439",
"E  c #575738",
"W  c #4B5730",
"Q  c #754828",
"!  c #664936",
"~  c #6A5437",
"^  c #755337",
"/  c #6E4A36",
"(  c #5B6A3C",
")  c #6F693E",
"_  c #263A44",
"`  c #363D44",
"'  c #394447",
"]  c #374753",
"[  c #39535C",
"{  c #2C424F",
"}  c #3A5463",
"|  c #4B4B44",
" . c #494949",
".. c #554947",
"X. c #4B5848",
"o. c #585548",
"O. c #475458",
"+. c #585858",
"@. c #434E51",
"#. c #664E45",
"$. c #784E48",
"%. c #685649",
"&. c #775845",
"*. c #655A56",
"=. c #725F51",
"-. c #5A6545",
";. c #576C4E",
":. c #656544",
">. c #6A6758",
",. c #766658",
"<. c #6C7459",
"1. c #73744F",
"2. c #4C5A64",
"3. c #595E61",
"4. c #465B78",
"5. c #58656B",
"6. c #5D6B72",
"7. c #556877",
"8. c #536B74",
"9. c #676767",
"0. c #766B64",
"q. c #767567",
"w. c #656C74",
"e. c #687378",
"r. c #737372",
"t. c #7B7C7A",
"y. c #6A7768",
"u. c #6C5F69",
"i. c #91461A",
"p. c #985A36",
"a. c #905031",
"s. c #926339",
"d. c #AC6933",
"f. c #875949",
"g. c #915F44",
"h. c #87644B",
"j. c #996848",
"k. c #866656",
"l. c #966A57",
"z. c #8A755C",
"x. c #97775A",
"c. c #89774E",
"v. c #AA7755",
"b. c #AF6E4B",
"n. c #877767",
"m. c #977D67",
"M. c #877B76",
"N. c #9E7970",
"B. c #A47B68",
"V. c #C97853",
"C. c #7A8A5A",
"Z. c #6E814A",
"A. c #7B8A6A",
"S. c #798877",
"D. c #B18358",
"F. c #96876A",
"G. c #8A8575",
"H. c #938978",
"J. c #959678",
"K. c #899068",
"L. c #B7856A",
"P. c #B6947B",
"I. c #AB8C71",
"U. c #8CA474",
"Y. c #A6A177",
"T. c #C9845A",
"R. c #C79674",
"E. c #CD9272",
"W. c #DDA275",
"Q. c #577484",
"!. c #6C7D85",
"~. c #757E84",
"^. c #66799A",
"/. c #778387",
"(. c #798C96",
"). c #6C8892",
"_. c #7495A6",
"`. c #888A87",
"'. c #948D85",
"]. c #969B89",
"[. c #999897",
"{. c #8C9594",
"}. c #A79686",
"|. c #B89784",
" X c #A79C98",
".X c #AB948B",
"XX c #99A491",
"oX c #BBA38B",
"OX c #A6A59A",
"+X c #B6A999",
"@X c #AEB290",
"#X c #8E9CA6",
"$X c #9AA5A7",
"%X c #8FA1AB",
"&X c #A5A8A9",
"*X c #ACB3A5",
"=X c #B7B8A7",
"-X c #B8B8B7",
";X c #ADB0B0",
":X c #AA9EA2",
">X c #C59C88",
",X c #C5AD9A",
"<X c #D3AF90",
"1X c #F3B48E",
"2X c #C3B6AE",
"3X c #CBB8AE",
"4X c #BBC4AD",
"5X c #C3C4BC",
"6X c #D7C8B7",
"7X c #CDC9B0",
"8X c #F5D0B3",
"9X c #F7C097",
"0X c #B2BCC2",
"qX c #9CB9C9",
"wX c #C1BAC1",
"eX c #BBC2C5",
"rX c #B0C5CB",
"tX c #C4C5C3",
"yX c #CBCACA",
"uX c #D3CDC9",
"iX c #D8D6CA",
"pX c #CDD7D6",
"aX c #DADCDC",
"sX c #D6D6D6",
"dX c #CBCFCD",
"fX c #E6DCD1",
"gX c #ECE4D3",
"hX c #DBDDE2",
"jX c #DAE3E4",
"kX c #E5E5E5",
"lX c #E9E9E6",
"zX c #ECECEC",
"xX c #E6E8E8",
"cX c #F2EEEC",
"vX c #F8EAE7",
"bX c #EBF1EA",
"nX c #F3F3ED",
"mX c #FAFAED",
"MX c #ECEDF1",
"NX c #EBEDFC",
"BX c #F4EDF6",
"VX c #ECF5F6",
"CX c #F4F4F4",
"ZX c #FAF5F5",
"AX c #FAF9F6",
"SX c #F5F6FA",
"DX c #FBF6FA",
"FX c #F5FBFC",
"GX c #FCFCFC",
"HX c #F6F8F4",
"JX c #E0DCDE",
/* pixels */
"GXHXzXGXCXzXGXCXSXDXzXGXDXzXGXDXzXGXDXzXGXHXzXGXMXHXGXcXGXGXnXZXGXlXGXHXcXGXZXCXGXcXHXGXzXCXGXzXGXGXzXGXGXzXGXSXCXGXMXCXGXzXHXGX",
"DXGXHXHXDXHXGXCXHXAXHXFXFXZXFXHXHXAXCXHXSXGXCXDXSXDXCXCXHXDXZXFXSXSXFXDXCXAXCXCXCXSXHXSXZXGXCXHXDXDXHXDXFXZXAXHXzXGXHXDXHXHXDXDX",
"lXDXGXzXGXGXzXGXHXzXGXcXMXGXzXHXGXMXDXGXzXCXGXzXGXHXCXGXCXzXGXMXSXGXMXGXGXzXCXGXcXGXGXlXGXCXMXGXHXzXGXCXcXGXzXSXGXzXGXDXzXGXDXzX",
"GXCXCXGXCXHXGXMXSXGXCXDXGXCXGXZXCXAXFXzXGXHXCXGXHXCXSXnXGXSXlXkXsXsXCXDXSXGXHXMXFXHXDXGXzXGXGXMXZXGXMXGXGXMXGXHXCXGXCXCXGXCXCXGX",
"GXSXCXGXCXCXGXMXHXGXCXDXDXCXGXHXCXDXHXCXGXHXCXGXCXMXGXMXGXsXr.9.t.`.;XlXkXGXDXHXGXHXzXGXHXAXFXCXFXDXMXGXDXcXGXSXCXGXCXCXGXCXCXGX",
"lXDXGXzXGXGXzXGXHXzXGXMXCXGXzXHXGXMXHXGXzXCXGXzXGXGXlXkX;X*.o   $ * v 9.tXzXDXGXlXFXGXzXGXlXHXGXAXzXGXCXMXGXzXHXGXlXGXGXzXGXFXzX",
"DXGXCXSXDXCXGXcXHXDXHXHXDXSXDXHXHXDXCXHXSXDXCXDXZXCXGXsXn   . . . .   . r.lXxXHXDXGXHXbXlXfX5XiXDXFXHXDXHXDXGXHXMXGXHXDXCXHXDXAX",
"GXHXzXGXCXcXGXCXDXGXzXGXGXzXGXDXzXGXFXcXGXCXCXGXCXCXdX+.2 | 6 F R l ,   f r.xXCXGXCXlXpXOXl w 7XGXGXlXGXGXzXGXHXHXGXMXCXGXzXHXGX",
"zXHXGXzXGXGXzXGXHXMXGXHXCXGXMXHXGXMXDXGXzXDXGXzXGXCX;X` o.,XD R ..U R 0 O M.FXZXCXzX=XXXP ( K 0XGXMXGXCXnXGXCXSXGXzXGXGXzXGXZXlX",
"HXDXCXDXHXFXCXHXCXHXDXHXCXDXDXHXGXCXHXHXFXHXHXCXSXAXCX`.|.P.=.l j j 4 5 O [.FXSXGX`.W ( Z.:.-.<.GXCXGXGXCXAXCXSXDXCXZXSXFXCXDXDX",
"GXCXCXGXzXCXGXCXDXDXlXGXGXlXGXDXlXGXDXzXGXCXzXGXNXmXFX2X|.oX4 F l 7 V ) O 3XFXxXGX-.K A.U.;X4X=XiXHXlXDXDXcXGXZXzXGXCXzXGXCXVXGX",
"zXGXDXzXGXDXcXDXSXCXGXCXCXGXCXCXGXCXHXGXCXZXGXMXDXmXpXOX<X! e $.k.*.R 8 : iXVX7X`.L A.VX*XU.1.<.G.7XGXSXFXGXnXHXGXCXHXGXzXDXGXnX",
"MXGXDXzXGXDXMXGXFXBXGXHXCXGXCXHXGXHXSXGXMXDXDXCXDXAXG.| n.N u G N j g 5 ` bXtXY K Z.4XC.L K 9 = 9 y.bXHXCXDXHXCXGXMXDXGXzXDXGXMX",
"GXCXHXGXzXCXGXCXZXGXlXGXGXxXGXSXlXGXDXzXGXHXzXGXBXhXG.+., n.M.8 j *.9.^ [.AX].% 9.4X<.>.aXW & 0 & -.iXGXGXzXGXCXnXGXCXzXGXHXCXGX",
"HXDXCXHXHXSXCXAXHXCXDXHXHXDXDXHXGXCXDXHXDXHXAXnXGXxXT ..b +XF.n.,Xg.N.c.*.OXK k 4XZ.L VXjXr & * 2 ;.aXnXHXCXCXGXFXCXDXHXSXHXDXHX",
"lXDXGXzXGXGXzXGXSXzXGXCXCXGXMXHXGXcXSXGXzXHXGXzXHXGXO.% e.F.W.B.m.V.k.E 2 = L XXXX( o.nXJ.w ; + = ].GXnXCXGXzXSXGXzXGXDXzXGXHXzX",
"GXFXzXGXCXCXGXcXCXGXzXHXGXzXGXSXBXFXnXzXGXnXHXGXBXGX&XO +.9.<Xk.%.|.k.S ( l L J.C.T 4XpXW X X   L 5XHXGXHXbXGXBXCXGXMXCXGXzXHXGX",
"CXGXSXDXDXCXGXCXHXDXCXDXCXCXGXFXCXVXZXZXGXCXaXGXBXBXJ.. c >.>X2X*XM.D R A.A.o.@XX.h uX6X'.O   $ A.nXHXFXDXbXGXHXCXGXCXSXHXCXDXDX",
"zXDXGXlXGXGXlXGXHXzXGXCXzXGXcXCXGXCXZXZXlXjX;X&X2X9.) :.j S v.Y.N.^ m N.Z.A.*X( = h.R.oXvX2X0 r sXZXGXcXHXGXkXGXGXzXGXGXlXGXDXzX",
"GXHXCXGXCXHXGXCXDXGXzXAXGXzXDXGXnXFXDXcXGX].R 3X8Xk.w ) F.+.d.p.U Q V Y.-.A.;.4 ^ m.6X^ W.9X~ J.GXHXnXAXSXMXGXnXcXGXHXCXGXCXHXGX",
"GXCXCXGXCXCXGXCXMXGXCXCXDXzXGXGXCXDXSXFXuXE +.W.s.9.3.. % A.E.A . L.H.].1.*Xq $.I.'.GX+XT.b.B |.GXGXbXHXFXMXGXCXMXGXCXnXGXCXHXGX",
"cXFXGXlXGXGXxXGXSXxXGXFXMXGXzXnXGXxXSXhX}.^ ,.J &.$X<   L :.1.! ! I.K.A.].].X B.I.:XDXfXI.Q B #.DXHXeXzXDXDXlXGXGXzXGXGXzXGXGXlX",
"HXGXDXDXDXHXGXSXMX-X&XpXMXGXZXDXCXGXMXz.h.7 h.^ `.3.X ' C.K.( X.;.C.U.-.U.X.  f.x.].8X8Xv.M A l.iX'.;XGXcXAXAXCXCXDXCXGXCXCXGXSX",
"GXHXzXGXMXCXGXcX-Xw.f 2.-XkXGXZXcXGXxXs.J 7 J 9.$X, f X.K.A.a 0 <.@Xr W <.    V j.k.1XE.^ 7 R.oXz.7 wXGXGXzXGXSXCXGXMXCXGXMXHXGX",
"zXHXGXzXGXGXzXCXtX;X#Xw.' pXlXCXGXkX$Xm a.i.*.P @.  ' @X( <.W G.].L ;.].0   . N Z p.b.p.i.B l.I.,XM t.tXnXAXvXSXGXzXGXGXzXGXFXlX",
"SXHXCXDXZXDXHXzXjXdXw.e.6.e.hXZXDXsXt.x.B.$.h O   # x `.@X9 0 -.W W 7Xw X X % e e e J J Z ^ j.b.b.A j hXAXFXCXCXDXHXDXHXDXCXFXZX",
"GXzXMXGXMXCXGXxXsX0X~.6.$X` &XhXjX XL.<X<XF < z   ; 6   | v g W A.@XP   1 k T 7 N = 5 5 h.M..X1Xj.j.H.uXnXbXGXHXCXGXHXMXGXCXcXGX",
"CXGXGXzXGXHXCXzXhX#X/.e.$Xe.O.-XkXE.L.fXgX..$ u X h w | .   + 9 L 0 X X v q.o.o 5 5 4 4 <X;X.X<X|.|.,XgX>XvXDXZXDXzXHXGXzXGXGXMX",
"CXDXDXcXGXFXCXCXjX~.6.!.(.e.] w. Xv.<X8XD.k.O . < n w OXh #         O   F <.T     7 8 7 R.G.=X1Xh.R.v.9Xb.l.BXcXGXMXZXGXzXDXGXCX",
"GXzXCXGXzXCXGXxXdX/.` ~.e.e.O.O./.m.>X9Xd.<X%.  | f l }.b       O O   . % w $ O   O . e p.F.7X1XH $.! H J Q &XJXCXGXCXMXGXCXCXGX",
"DXHXCXSXAXHXHXzXhXw.; 2.2.e._ e.` .X<XD.8X1Xs.i H.  , l 1         @             # O   $ Q j.R.v./ ,.OXH.>XE.}.iXHXCXFXHXDXHXAXHX",
"zXHXGXzXGXGXzXBXpX~.  x d O.` e.: _.&.V.GX<XB #.z..       . = w w = o @ # # X       . % 5 H a.^ N.+XiX*X8XT.,XsXDXzXGXGXlXGXSXzX",
"GXCXCXGXMXCXGXxX-X{.: : z ' ' 8.' ] #XT.1XV.a.F.%.  . X @ $ * , o $     .   o o   X   ; `.i e B E.,X6X|.W.v.2XJXkXGXCXMXGXcXHXGX",
"CXGXDXDXAXCXGXzXyXt.` + p t x 2.Q.d ).M.i.I j.m.l o > 2 h o     O o k 0.F  .u $ >     F FXyX&.C i.p.D.b.V.$.3XJXcXGXCXDXDXDXGXVX",
"zXFXGXlXGXGXlXGXsX`. .O ; c x ] Q.7.k Q.h.B.a.l.v   * | o.%     O , E oX1.>.w % # X   &XxX&XN.<X%.V I p.F $.P.yXHXlXGXDXlXGXHXzX",
"GXCXCXGXMXHXGXzXuXt.g T * 1 z : 4._. .{ %Xb.M oX-X  . o F G.l X % . = l e F o @ @   +.bX{.w <.6XR.a.a.a.N I.OX-XzXGXCXCXGXCXHXGX",
"GXHXCXGXCXCXDXzX2XM.h , F > - y k ^.).  4.D G bXGX3.  o q.iX'.@ E G.F     h X     n [.+.$   ; o.C j.h./ ^ j.m.fXCXGXCXMXGXHXCXGX",
"zXZXGXxXGXGXlXDXuXr.6 $ o.. O 7.+ 6._.< t e.sXVXGXhX  6 j >.R o l }.G.= $ X X g  . .X   ; ` u h 1.R.#.>X<Xg. XNXGXlXGXDXlXGXZXMX",
"HXGXDXHXSXCXDXlXyXr.. h l @ p [ - @.qX{ . _ rXGXHXkX@   %     o @ j l o u c 9.b 3   ; r.-X$Xc p ^ A a.v.b.F.vXBXCXGXCXAXAXDXDXCX",
"GXHXzXGXCXCXGXlX-Xu.6 h 6   s _ [ f %X8.  - 9.BXHXlXv o 6 >.h   X     . o.H.'.=.- u r.S.o.6 + 0 M D i.v.,XkXGXFXMXGXMXCXGXMXHXGX",
"MXHXGXzXGXGXzXCX-X+., g ,   ; x ] : ' ~.-   s $XGX'.l j e Y.0.= F.J., +.+.= V c.~ 6 < @ < d _ 2.'.5XhXMXGXGXCXSXGXcXGXGXzXGXDXzX",
"DXDXCXFXHXHXCXzXtX9., ,     O t x O ; 6.t O # O.FXb k p 1 T l j >.`.`. .$     v Y & y c O.2.(.&XkXlXDXGXzXGXnXDXFXCXHXSXSXCXDXHX",
"GXMXCXGXcXMXGXlX3X9.f $       - -     h - +.2 > e.' | 5.6.2.w.` R >.6     O 3.`.k 6.%X(.e.!.%XpXGXCXdXVXHXcXGXCXnXGXHXzXGXCXCXGX",
"CXDXDXzXGXHXCXCXuX9.6         > > X   O   ' 3.  g j R ~ n.%.-.o.A.o.l $ . h -Xb 0 @.] _ O.!.(.hXFX4X{.pXGXAXCXHXGXzXDXGXzXFXGXcX",
"MXGXGXzXGXHXCXMXuX9.j $       ; 2       O   +.; d c  .! V N C =.+.| o.<.F q. .; < z [ 2.8.%XqXrX0X/.6.0XCXAXnXSXGXMXDXGXzXDXGXzX",
"GXzXCXGXCXCXGXlXyX*.X.r.        .     X   + f f z _ 7.5.X.+.b u.r.+.T +.X.v   c 2.O.[ } Q.)._.).5.!.' $XGXzXGXAXCXGXCXzXGXHXCXGX",
"GXDXCXDXHXZXHXzXyX+.r.sXX           > <     - 1 T c 5.z x ' _ w.n.o.=.r.t.a f c 8.e.6.[ _ d ] } z !.z #XGXAXMXGXHXCXDXHXHXHXDXHX",
"zXHXGXlXGXGXzXCXtX+.[.GX .        + -           O.z z ` w x O y.,Xl.m.*.0.6 z z ' 9.-X;X`   @ s s !.t /.SXGXzXSXGXzXGXGXzXGXSXzX",
"GXCXcXGXMXCXGXkX-Xr.tXGXtX@   X       < +       h ` + a z c t. X<XL.P.W.l.a ` x p v OXnXpXp   . s 5.y ~.FXMXGXHXCXGXcXCXGXzXHXGX",
"DXDXCXCXGXCXGXxX;X{.MXzXGX+.          p < X     O z O O f +.> | ,XR.R.>X,.6 g @.6.5.$XtXkXeX>   z _   e.MXFXDXCXMXGXCXGXCXCXDXDX",
"lXFXGXzXGXGXlXGXJXyXGXHXMXkXt.<       #     X   O ; - a ` X   P |.I.L.B.! }.#.= ' /.&XeXt.`.t.O ' {.&X0XzXGXzXDXGXzXGXGXzXGXDXzX",
"GXHXCXGXCXHXGXcXGXGXCXDXAXGXGX[.X   X O -           < f + +   o D n.,.B z.+XM.V 5 , 9.`.| P ~.x [.GXGXGXGXCXFXHXCXGXHXMXGXMXHXGX",
"GXDXCXGXCXHXGXCXHXDXCXCXGXlXGXDX9.O                 @ <         X . S M ,.}.=.M Q S o  .c 0 c [.MXGXzXHXDXCXGXCXMXGXCXnXGXCXHXGX",
"lXSXGXzXDXGXzXGXFXzXGXHXcXGXxXHXzX+.    X                     X O $ D 7 %.k.D V s.k.e < a < r.cXDXzXGXCXCXGXzXDXGXzXGXGXzXGXGXlX",
"DXFXCXHXDXCXGXzXCXDXCXHXDXHXGXSXFXkX>.              X           O 7 C 7 e D 7 R &.z.%.o @ w.kXAXCXZXCXHXGXCXMXDXCXDXCXGXCXCXGXSX",
"GXCXcXGXzXMXGXCXHXGXMXDXGXlXGXDXzXGXxXr.@                         6 M N 8 e 6 D 0.0.D 6 r.xXGXzXGXGXlXGXHXzXGXHXCXGXMXCXGXMXHXGX",
"lXDXGXlXGXGXzXGXHXzXGXHXCXGXzXCXGXMXGXHX[.b                     O , 5 V N 5 j +.,.o.*. XSXDXlXGXCXcXGXCXHXGXzXHXGXzXGXGXlXGXDXlX",
"SXGXCXHXFXZXCXHXHXDXDXHXCXSXDXHXGXCXZXGXGXyXr.6     X   X       % % j H M e S +.>.].uXZXGXDXCXCXHXDXDXCXHXDXZXHXHXCXDXHXFXCXGXSX",
"GXCXCXGXzXCXGXCXDXDXlXGXGXlXGXDXlXGXGXzXGXGXxXdXr.g 3       .   8 e ! N e R +.$XfXkXGXGXlXSXGXzXFXGXzXGXGXzXDXFXMXGXCXzXGXCXCXGX",
"CXDXGXzXGXAXMXGXSXCXGXHXCXGXCXHXGXCXHXGXzXSXGXMXGXsX$Xt.o.g f h R 0.,.0.OX-XJXBXCXDXZXCXGXCXCXGXCXCXGXMXCXGXCXAXGXCXZXGXcXDXAXCX",
"cXGXGXcXGXAXMXDXDXMXGXHXCXGXCXHXGXCXCXGXMXCXGXHXGXDXGXGXxXJXsXdXiXJXJXlXGXCXGXGXzXHXDXCXGXCXCXGXCXCXGXMXHXGXCXSXDXCXDXGXMXGXFXnX",
"GXMXCXGXzXCXGXCXDXGXlXGXGXzXGXDXMXGXHXzXGXCXzXGXzXCXGXzXDXGXzXGXGXzXGXFXcXGXlXnXGXCXCXGXMXGXGXkXHXGXlXGXGXlXGXDXMXGXCXzXGXCXCXGX",
"HXDXCXCXFXDXCXDXHXSXGXHXCXDXDXHXDXHXDXHXDXCXDXFXGXCXHXHXHXSXGXCXCXGXnXCXCXSXDXGXcXDXCXHXCXZXHXGXHXDXGXCXCXDXHXHXAXCXDXSXHXHXDXHX",
"lXGXGXxXGXGXlXGXHXcXGXCXMXGXMXCXGXzXHXGXzXGXGXlXGXGXlXGXDXzXGXcXnXGXnXCXGXxXGXGXzXGXGXzXGXHXzXGXCXMXGXCXHXGXMXHXGXzXGXGXlXGXDXxX"
};
