/* XPM */
static char *_52e54b03a9446b7b0baac5ebf200c6dHBFPmcopZHXwv7Oi[] = {
/* columns rows colors chars-per-pixel */
"64 64 189 2 ",
"   c None",
".  c #181408",
"X  c #3C3116",
"o  c #181C21",
"O  c #1E2838",
"+  c #212120",
"@  c #2D353D",
"#  c #42361A",
"$  c #53431D",
"%  c #544521",
"&  c #5D563E",
"*  c #4B493D",
"=  c #6A5423",
"-  c #615129",
";  c #705D2F",
":  c #675933",
">  c #6C5F3D",
",  c #79632C",
"<  c #232F41",
"1  c #293444",
"2  c #353F4B",
"3  c #323B47",
"4  c #2C3B51",
"5  c #3E4143",
"6  c #3B444D",
"7  c #3A485B",
"8  c #394B66",
"9  c #3F5067",
"0  c #3B5173",
"q  c #464948",
"w  c #444E58",
"e  c #4A5158",
"r  c #555155",
"t  c #6A6856",
"y  c #4D5B6A",
"u  c #525E6A",
"i  c #505B67",
"p  c #435874",
"a  c #57616C",
"s  c #4D607C",
"d  c #5F6D7B",
"f  c #666C71",
"g  c #74797D",
"h  c #666A6D",
"j  c #846B2F",
"k  c #96762E",
"l  c #897239",
"z  c #BC6E3F",
"x  c #81584D",
"c  c #865F55",
"v  c #957D43",
"b  c #AE664D",
"n  c #B46146",
"m  c #85746F",
"M  c #867273",
"N  c #CA7845",
"B  c #A38232",
"V  c #BA923A",
"C  c #C9963D",
"Z  c #9F8645",
"A  c #B79A4F",
"S  c #B58848",
"D  c #AE9B6A",
"F  c #B88775",
"G  c #B1A16F",
"H  c #CA8448",
"J  c #D78743",
"K  c #CA9D47",
"L  c #D49646",
"P  c #C89D51",
"I  c #E59846",
"U  c #FB8055",
"Y  c #C9A040",
"T  c #D5A041",
"R  c #D2AB59",
"E  c #D0A758",
"W  c #EEBA5A",
"Q  c #E3B246",
"!  c #EA9274",
"~  c #49648C",
"^  c #486084",
"/  c #516581",
"(  c #5F7186",
")  c #526E96",
"_  c #5F7590",
"`  c #6E7B85",
"'  c #62768D",
"]  c #687788",
"[  c #777884",
"{  c #697E99",
"}  c #6F808F",
"|  c #77858F",
" . c #6D8197",
".. c #738392",
"X. c #7C8896",
"o. c #7C8D9D",
"O. c #6783A9",
"+. c #778DAB",
"@. c #7F95AE",
"#. c #728FB6",
"$. c #7C96B5",
"%. c #7B97B9",
"&. c #6F92C3",
"*. c #7A99C3",
"=. c #7798C6",
"-. c #868A8D",
";. c #8B9196",
":. c #8D959D",
">. c #90989F",
",. c #9B8992",
"<. c #AE9287",
"1. c #A49496",
"2. c #A7A99B",
"3. c #8B9DAD",
"4. c #8494A3",
"5. c #9C9CA4",
"6. c #9099A3",
"7. c #8399B3",
"8. c #8A9DBC",
"9. c #A89CA3",
"0. c #8EA2B4",
"q. c #8CA3BC",
"w. c #97ADBF",
"e. c #99A8B6",
"r. c #A8A8AE",
"t. c #AFACB2",
"y. c #A5B1BF",
"u. c #F0A283",
"i. c #C7B5A8",
"p. c #E3BBAF",
"a. c #CEC9AC",
"s. c #819FCB",
"d. c #829EC4",
"f. c #8EA7C2",
"g. c #82A0CA",
"h. c #88A6CC",
"j. c #85A2C6",
"k. c #94A6C2",
"l. c #99AEC3",
"z. c #92ABCA",
"x. c #9CB3C9",
"c. c #96B1CC",
"v. c #8FADD2",
"b. c #92AED2",
"n. c #9CB5D5",
"m. c #9AB4D7",
"M. c #A6B5C6",
"N. c #A4BACD",
"B. c #ADBDCE",
"V. c #A5BDD3",
"C. c #A9BED7",
"Z. c #AEC1CA",
"A. c #BCC3C4",
"S. c #B0C3CE",
"D. c #ABC0D6",
"F. c #ACC5DD",
"G. c #BCCAD4",
"H. c #B5C7D5",
"J. c #AEC9E2",
"K. c #A7C3E0",
"L. c #B4CEE4",
"P. c #B9CBE2",
"I. c #B6D0E6",
"U. c #BCD2E6",
"Y. c #BAD3E9",
"T. c #B7D1E8",
"R. c #C5CBCE",
"E. c #CDD4CF",
"W. c #C7D4DD",
"Q. c #CCD0D1",
"!. c #DCDFDE",
"~. c #C3D2E4",
"^. c #CAD8E4",
"/. c #CBDCEB",
"(. c #C7D7E8",
"). c #D4DFEB",
"_. c #DEE2E1",
"`. c #D4E3ED",
"'. c #DCE6EE",
"]. c #D7E6F0",
"[. c #DCE9F2",
"{. c #E3EAEC",
"}. c #F2F3ED",
"|. c #E3EDF4",
" X c #ECF2F7",
".X c #EEF5F8",
"XX c #F6FAFA",
"oX c #FAFDFC",
"OX c #F2F6F4",
/* pixels */
"                                                                                                                                ",
"                                                                                                                                ",
"                                                                                                                                ",
"                                                                                                                                ",
"                                                                                                                                ",
"                                                                                                                                ",
"                                                                                                                                ",
"                                                                                                                                ",
"                                                                                                                                ",
"                                                                                                                                ",
"                                                                                                                                ",
"                                                                                                                                ",
"                                                                                                                                ",
"                                                                                                                                ",
"                                                                                                                                ",
"                                    $.6                                                                                         ",
"                                    7.w                   *.(                                                                   ",
"                                  [ r                     h.d                                                                   ",
"                                u.,.c                 ! 8.{ 2                                                                   ",
"                                9.M <.                p.9.x                                                                     ",
"                                  ' -.q               t.F b U                                                                   ",
"                                  C.M.[ O.8.f.%.' p M.;.m                         L.F.b.                                        ",
"                                  ~.{.C.[. X|.Y.7.+.D.6.                          v.s.b.                                        ",
"                                  ~. X XoXXXoX XL./.^.f   .                       e.n.i.                                        ",
"                                g.).oXoXoXoXoXXX/.Y.3.+ % ; X                     r.1.n                                         ",
"                                d.r.{.oXoXXX!.OX|.L.| # = % ; P E R E P Y V j     5.M                                           ",
"                                ^ X.|.oXXXA.` >.`.V.q = v R L H N N H L Q B $   ~ +.z.z.                                        ",
"                                O.2.}.oXR.` Z.$.^.N.* R W L z N J I T C =     l.M.X.h g 6.:.r                                   ",
"                                  W.oXXX{.a.a.F.N.| > k k V C I C k l r o   %.a q 7 <   s.h.B.;.                                ",
"                                  m.R.Q.oXXX~.w.( t Y S = # : : t ..0.F.4.7.y     ) _       #.C.5                               ",
"                                    D.^.R.4...] x.l.D L L , ` y.D.T.T.I.T.D.u       *.{ u u f ..                                ",
"                                      ' p ' 0.L.I.L.D.G A Z r E.|.|.`.I.I.T.o.        =.*.' w                                   ",
"                                          =.J.I.I.I./.W.D.A.a.}.XXXXXX].I.I.0.6                                                 ",
"                                          &.K.T.Y.[.XXXX[. XXXoXXXXXoX.XY.I.L.a                                                 ",
"                                            F./..XXXoXoX^.Y.XXXXXX[.(.F.J.I.F.a                                                 ",
"                                            } ].~.XXoX{.k.q.g [ M.%.p ) j.L.I.3.6                                               ",
"                                            w f.P.XXXX3.1 @     @ 3 #.O.~ $.F.I. .8                                             ",
"                                              O. XXXA.`              .%.0 7 x.D.9 <                                             ",
"                                              n..X!.` w.3           }  .O   v.N.@                                               ",
"                                              ~.oX5.3.N.6         ..c.7     ^.G.@                                               ",
"                                            h.].!.f c.L.X.      6 } p     n. Xe.                                                ",
"                                            m.oXr.  m./.+.                ^.`.i                                                 ",
"                                            L.{.-.  b.[.:.4             6 +.`                                                   ",
"                                          =.|.G.3     U.q.8                                                                     ",
"                                          n.|.e.    @.H./ 0                                                                     ",
"                                          ^.].{     6 y                                                                         ",
"                                        P.[.q.p                                                                                 ",
"                                      &.B.l.8                                                                                   ",
"                                        3 @                                                                                     ",
"                                                                                                                                ",
"                                                                                                                                ",
"                                                                                                                                ",
"                                                                                                                                ",
"                                                                                                                                ",
"                                                                                                                                ",
"                                                                                                                                ",
"                                                                                                                                ",
"                                                                                                                                ",
"                                                                                                                                ",
"                                                                                                                                ",
"                                                                                                                                ",
"                                                                                                                                ",
"                                                                                                                                ",
"                                                                                                                                "
};
